<svg width="42" height="27" viewBox="0 0 42 27" fill="none" xmlns="http://www.w3.org/2000/svg">
<path d="M38.3202 25.5139C38.5225 23.8964 39.5303 22.3027 41.0812 21.7764C40.4696 23.4412 40.4697 25.2675 41.0816 26.9323C41.3199 27.5734 41.6521 28.2619 41.4279 28.9081C41.2885 29.3102 40.9473 29.6178 40.5659 29.8102C40.1844 30.0025 39.7611 30.0942 39.3431 30.184L39.2609 30.2517C38.5973 28.7614 38.118 27.1313 38.3202 25.5139Z" fill="#035D63"/>
<path d="M41.0964 21.8071C40.1932 22.8136 39.6318 24.0776 39.492 25.4195C39.4568 25.7079 39.4675 26 39.5236 26.285C39.5874 26.5609 39.7243 26.8148 39.9201 27.0204C40.0988 27.2156 40.3043 27.3948 40.4321 27.6298C40.4958 27.7511 40.5329 27.8844 40.5411 28.021C40.5493 28.1575 40.5284 28.2943 40.4798 28.4223C40.3669 28.7443 40.1444 29.0067 39.9179 29.2559C39.6664 29.5325 39.4007 29.8159 39.2938 30.1826C39.2809 30.2271 39.2123 30.2045 39.2252 30.1601C39.4113 29.522 40.034 29.1596 40.331 28.5849C40.4696 28.3168 40.5277 28.0054 40.3978 27.7224C40.2842 27.4748 40.0724 27.2899 39.8898 27.0938C39.6959 26.8961 39.5535 26.6542 39.4753 26.3891C39.4046 26.1079 39.3827 25.8167 39.4103 25.5281C39.4621 24.8773 39.6164 24.2387 39.8676 23.6356C40.1504 22.9458 40.5499 22.3091 41.0486 21.7532C41.0795 21.7188 41.127 21.7729 41.0964 21.8071H41.0964Z" fill="white"/>
<path d="M39.5113 24.985C39.2881 24.9311 39.0915 24.8001 38.9564 24.6153C38.8214 24.4305 38.7569 24.204 38.7743 23.9762C38.7779 23.9301 38.8501 23.9336 38.8464 23.9798C38.8298 24.1919 38.89 24.4028 39.0161 24.5747C39.1421 24.7465 39.3258 24.8678 39.5339 24.9168C39.5791 24.9275 39.5562 24.9956 39.5113 24.985V24.985Z" fill="white"/>
<path d="M39.8161 26.9329C40.2191 26.6935 40.5167 26.3118 40.6494 25.8639C40.6625 25.8195 40.7311 25.8421 40.718 25.8864C40.579 26.3523 40.2686 26.7489 39.8485 26.9971C39.8085 27.0207 39.7762 26.9564 39.8161 26.9329V26.9329Z" fill="white"/>
<path d="M40.2171 23.014C40.299 23.0527 40.3894 23.0706 40.4801 23.066C40.5707 23.0615 40.6588 23.0346 40.7364 22.9877C40.7762 22.9636 40.8084 23.0279 40.7689 23.0519C40.6829 23.1032 40.5856 23.1328 40.4855 23.1381C40.3853 23.1434 40.2854 23.1242 40.1944 23.0822C40.1855 23.0789 40.1782 23.0724 40.1739 23.064C40.1696 23.0556 40.1688 23.0459 40.1714 23.0368C40.1745 23.0278 40.181 23.0203 40.1895 23.0161C40.1981 23.0118 40.208 23.011 40.2171 23.014V23.014Z" fill="white"/>
<path d="M45.808 24.6651C45.7836 24.6809 45.7592 24.6967 45.7348 24.713C45.4082 24.9267 45.0996 25.1663 44.812 25.4297C44.7894 25.4497 44.7668 25.4703 44.7449 25.4909C44.0588 26.1327 43.4985 26.8956 43.0924 27.7408C42.9311 28.0773 42.7958 28.4255 42.6876 28.7824C42.5382 29.2754 42.4157 29.8216 42.1201 30.2248C42.0897 30.2672 42.0567 30.3077 42.0213 30.3461H39.3496C39.3435 30.343 39.3374 30.3406 39.3313 30.3376L39.2246 30.3424C39.2289 30.3236 39.2337 30.3042 39.238 30.2854C39.2405 30.2745 39.2435 30.2636 39.2459 30.2527C39.2478 30.2454 39.2496 30.2381 39.2508 30.2315C39.2514 30.229 39.2521 30.2266 39.2526 30.2248C39.2539 30.2181 39.2557 30.2121 39.2569 30.206C39.2838 30.0975 39.3114 29.989 39.3398 29.8804C39.3398 29.8798 39.3398 29.8798 39.3404 29.8792C39.5593 29.0528 39.8494 28.2374 40.2548 27.4917C40.267 27.4692 40.2792 27.4462 40.2926 27.4238C40.4772 27.0886 40.689 26.7691 40.9259 26.4682C41.0562 26.3039 41.1948 26.1463 41.3411 25.9959C41.7198 25.6082 42.1576 25.282 42.6382 25.0295C43.5965 24.5263 44.7059 24.3335 45.73 24.6409C45.7562 24.6488 45.7818 24.6567 45.808 24.6651Z" fill="#035D63"/>
<path d="M45.8023 24.6994C44.4718 24.9622 43.2585 25.6353 42.3346 26.623C42.1319 26.8321 41.9636 27.0717 41.8359 27.333C41.7198 27.5915 41.6754 27.8762 41.7073 28.1575C41.7318 28.4204 41.7874 28.6865 41.7472 28.9507C41.7246 29.0857 41.6736 29.2144 41.5975 29.3283C41.5214 29.4423 41.4219 29.539 41.3056 29.612C41.0205 29.8015 40.684 29.8779 40.3523 29.9411C39.9841 30.0114 39.6004 30.0786 39.2931 30.3074C39.2558 30.3351 39.2148 30.276 39.2519 30.2483C39.7867 29.8502 40.5033 29.9338 41.0883 29.6528C41.3613 29.5216 41.5962 29.3079 41.6638 29.0041C41.7229 28.7384 41.6658 28.4639 41.6387 28.198C41.6035 27.924 41.6363 27.6456 41.7342 27.3871C41.8481 27.1203 42.0069 26.8746 42.2036 26.6607C42.6389 26.1721 43.1486 25.7546 43.7143 25.4235C44.3577 25.0421 45.062 24.7729 45.7967 24.6277C45.8422 24.6188 45.8475 24.6905 45.8023 24.6994V24.6994Z" fill="white"/>
<path d="M29.6909 17.3475C29.7462 17.2907 29.7883 17.2226 29.8142 17.1478C29.8401 17.0731 29.8493 16.9936 29.841 16.915C29.8327 16.8364 29.8071 16.7605 29.7662 16.6928C29.7252 16.625 29.6698 16.567 29.6039 16.5229L30.0978 14.665L29.1462 14.9834L28.823 16.6988C28.7558 16.8139 28.7333 16.9495 28.7599 17.08C28.7865 17.2104 28.8603 17.3266 28.9673 17.4066C29.0742 17.4866 29.207 17.5247 29.3404 17.5138C29.4737 17.5029 29.5985 17.4438 29.6909 17.3475V17.3475Z" fill="#9E616A"/>
<path d="M30.5893 14.5054L30.3349 14.5753C30.3349 14.5753 29.6702 18.8613 29.6161 21.1199C29.562 23.3785 29.7783 29.0788 29.7783 29.0788H31.1841L32.3195 19.399L32.8602 29.0788H34.3741C34.3741 29.0788 35.4554 16.3876 34.9688 15.3658C34.4822 14.3441 30.5893 14.5054 30.5893 14.5054Z" fill="#035D63"/>
<path d="M32.6169 6.94176C33.3184 6.94176 33.8871 6.37614 33.8871 5.6784C33.8871 4.98066 33.3184 4.41504 32.6169 4.41504C31.9154 4.41504 31.3467 4.98066 31.3467 5.6784C31.3467 6.37614 31.9154 6.94176 32.6169 6.94176Z" fill="#9E616A"/>
<path d="M35.8335 8.58911L33.862 7.30762L31.819 7.38764L29.832 8.48155L30.589 12.6761L30.2646 15.096C30.2646 15.096 33.1842 14.7734 33.833 15.2574C34.212 15.5445 34.6589 15.7297 35.1307 15.7951L35.0225 11.6544L35.8335 8.58911Z" fill="#058B94"/>
<path d="M30.2108 8.4279L30.0065 8.38574L29.8323 8.48168C29.8323 8.48168 29.3457 9.12699 29.3457 9.71853C29.3457 10.3101 28.751 16.0104 28.751 16.0104L29.8323 16.4943L30.6974 12.0309L30.2108 8.4279Z" fill="#058B94"/>
<path d="M33.7289 4.75272C33.7289 4.75272 34.0611 4.12104 33.3302 4.06361C33.3302 4.06361 32.7071 3.50143 32.072 3.96084C32.072 3.96084 31.7256 3.96084 31.5362 4.35074C31.5362 4.35074 31.2637 4.24796 31.2038 4.52301C31.2038 4.52301 31.0045 5.09727 31.2038 5.6141C31.4032 6.13093 31.4694 6.18835 31.4694 6.18835C31.4694 6.18835 31.1418 5.10479 31.9392 5.04737C32.7366 4.98994 33.629 4.4943 33.6954 5.12598C33.7619 5.75766 33.8619 5.9133 33.8619 5.9133C33.8619 5.9133 34.493 5.01113 33.7289 4.75272Z" fill="#2F2E41"/>
<path d="M17.3148 12.1851H1.58105V0.461914H17.3148V12.1851Z" fill="white"/>
<path d="M16.9406 4.44827H2.3371C1.95995 4.44827 1.59824 4.29785 1.33155 4.0301C1.06486 3.76234 0.915039 3.39919 0.915039 3.02052C0.915039 2.64186 1.06486 2.27871 1.33155 2.01095C1.59824 1.7432 1.95995 1.59277 2.3371 1.59277H16.9406C17.3178 1.59277 17.6795 1.7432 17.9462 2.01095C18.2129 2.27871 18.3627 2.64186 18.3627 3.02052C18.3627 3.39919 18.2129 3.76234 17.9462 4.0301C17.6795 4.29785 17.3178 4.44827 16.9406 4.44827Z" fill="#058B94"/>
<path d="M2.33704 2.05957C2.08319 2.05957 1.83973 2.16082 1.66023 2.34104C1.48073 2.52126 1.37988 2.76569 1.37988 3.02056C1.37988 3.27543 1.48073 3.51986 1.66023 3.70008C1.83973 3.8803 2.08319 3.98154 2.33704 3.98154H16.9406C17.1944 3.98154 17.4379 3.8803 17.6174 3.70008C17.7969 3.51986 17.8977 3.27543 17.8977 3.02056C17.8977 2.76569 17.7969 2.52126 17.6174 2.34104C17.4379 2.16082 17.1944 2.05957 16.9406 2.05957H2.33704Z" fill="white"/>
<path d="M22.1009 1.68555C21.7507 1.68555 21.4148 1.82524 21.1671 2.0739C20.9194 2.32255 20.7803 2.65981 20.7803 3.01146C20.7803 3.36312 20.9194 3.70037 21.1671 3.94903C21.4147 4.19769 21.7507 4.33739 22.1009 4.33739H22.1009C22.4512 4.33739 22.7871 4.1977 23.0348 3.94904C23.2824 3.70038 23.4216 3.36313 23.4216 3.01147C23.4216 2.65981 23.2824 2.32256 23.0348 2.0739C22.7871 1.82524 22.4512 1.68555 22.1009 1.68555Z" fill="#035D63"/>
<path d="M21.9757 3.56185C21.941 3.56191 21.9071 3.55061 21.8793 3.52967L21.8776 3.52838L21.5144 3.24945C21.4976 3.2365 21.4835 3.22036 21.4729 3.20193C21.4622 3.18351 21.4553 3.16316 21.4526 3.14206C21.4498 3.12096 21.4512 3.09952 21.4566 3.07895C21.4621 3.05839 21.4716 3.03911 21.4845 3.02222C21.4974 3.00533 21.5135 2.99115 21.5318 2.9805C21.5502 2.96986 21.5704 2.96294 21.5915 2.96016C21.6125 2.95738 21.6338 2.95878 21.6543 2.96429C21.6748 2.96979 21.694 2.9793 21.7108 2.99225L21.9461 3.17337L22.5019 2.44526C22.5148 2.42838 22.5309 2.41421 22.5492 2.40357C22.5676 2.39293 22.5878 2.38602 22.6088 2.38323C22.6298 2.38045 22.6512 2.38184 22.6716 2.38734C22.6921 2.39283 22.7113 2.40232 22.7281 2.41527L22.7282 2.4153L22.7247 2.42011L22.7283 2.4153C22.7622 2.44147 22.7844 2.48009 22.79 2.52267C22.7956 2.56526 22.7841 2.60833 22.7581 2.64244L22.1043 3.49846C22.0891 3.51819 22.0697 3.53415 22.0474 3.54511C22.0252 3.55607 22.0007 3.56173 21.9759 3.56166L21.9757 3.56185Z" fill="white"/>
<path d="M16.9406 9.28031H2.3371C1.95995 9.28031 1.59824 9.12988 1.33155 8.86213C1.06486 8.59437 0.915039 8.23122 0.915039 7.85256C0.915039 7.47389 1.06486 7.11074 1.33155 6.84298C1.59824 6.57523 1.95995 6.4248 2.3371 6.4248H16.9406C17.3178 6.4248 17.6795 6.57523 17.9462 6.84298C18.2129 7.11074 18.3627 7.47389 18.3627 7.85256C18.3627 8.23122 18.2129 8.59437 17.9462 8.86213C17.6795 9.12988 17.3178 9.28031 16.9406 9.28031Z" fill="#058B94"/>
<path d="M2.33704 6.8916C2.08319 6.8916 1.83973 6.99285 1.66023 7.17307C1.48073 7.35329 1.37988 7.59772 1.37988 7.85259C1.37988 8.10746 1.48073 8.35189 1.66023 8.53211C1.83973 8.71233 2.08319 8.81357 2.33704 8.81357H16.9406C17.1944 8.81357 17.4379 8.71233 17.6174 8.53211C17.7969 8.35189 17.8977 8.10746 17.8977 7.85259C17.8977 7.59772 17.7969 7.35329 17.6174 7.17307C17.4379 6.99285 17.1944 6.8916 16.9406 6.8916H2.33704Z" fill="white"/>
<path d="M22.1009 6.51758C21.7507 6.51758 21.4148 6.65727 21.1671 6.90593C20.9194 7.15459 20.7803 7.49184 20.7803 7.8435C20.7803 8.19515 20.9194 8.53241 21.1671 8.78107C21.4147 9.02973 21.7507 9.16942 22.1009 9.16942H22.1009C22.4512 9.16942 22.7871 9.02973 23.0348 8.78107C23.2824 8.53241 23.4216 8.19516 23.4216 7.8435C23.4216 7.49185 23.2824 7.15459 23.0348 6.90593C22.7871 6.65727 22.4512 6.51758 22.1009 6.51758Z" fill="#035D63"/>
<path d="M21.9757 8.39388C21.941 8.39394 21.9071 8.38265 21.8793 8.36171L21.8776 8.36041L21.5144 8.08148C21.4976 8.06853 21.4835 8.05239 21.4729 8.03396C21.4622 8.01554 21.4553 7.99519 21.4526 7.97409C21.4498 7.95299 21.4512 7.93155 21.4566 7.91098C21.4621 7.89042 21.4716 7.87114 21.4845 7.85425C21.4974 7.83736 21.5135 7.82318 21.5318 7.81254C21.5502 7.80189 21.5704 7.79497 21.5915 7.79219C21.6125 7.78941 21.6338 7.79081 21.6543 7.79632C21.6748 7.80182 21.694 7.81133 21.7108 7.82428L21.9461 8.0054L22.5019 7.27729C22.5148 7.26041 22.5309 7.24624 22.5492 7.2356C22.5676 7.22496 22.5878 7.21805 22.6088 7.21526C22.6298 7.21248 22.6512 7.21387 22.6716 7.21937C22.6921 7.22487 22.7113 7.23436 22.7281 7.2473L22.7282 7.24733L22.7247 7.25214L22.7283 7.24733C22.7622 7.27351 22.7844 7.31212 22.79 7.3547C22.7956 7.39729 22.7841 7.44036 22.7581 7.47447L22.1043 8.3305C22.0891 8.35022 22.0697 8.36618 22.0474 8.37714C22.0252 8.3881 22.0007 8.39376 21.9759 8.39369L21.9757 8.39388Z" fill="white"/>
<path d="M16.9406 14.1133H2.3371C1.95995 14.1133 1.59824 13.9629 1.33155 13.6951C1.06486 13.4274 0.915039 13.0642 0.915039 12.6856C0.915039 12.3069 1.06486 11.9437 1.33155 11.676C1.59824 11.4082 1.95995 11.2578 2.3371 11.2578H16.9406C17.3178 11.2578 17.6795 11.4082 17.9462 11.676C18.2129 11.9437 18.3627 12.3069 18.3627 12.6856C18.3627 13.0642 18.2129 13.4274 17.9462 13.6951C17.6795 13.9629 17.3178 14.1133 16.9406 14.1133Z" fill="#058B94"/>
<path d="M2.33704 11.7246C2.08319 11.7246 1.83973 11.8259 1.66023 12.0061C1.48073 12.1863 1.37988 12.4307 1.37988 12.6856C1.37988 12.9405 1.48073 13.1849 1.66023 13.3651C1.83973 13.5453 2.08319 13.6466 2.33704 13.6466H16.9406C17.1944 13.6466 17.4379 13.5453 17.6174 13.3651C17.7969 13.1849 17.8977 12.9405 17.8977 12.6856C17.8977 12.4307 17.7969 12.1863 17.6174 12.0061C17.4379 11.8259 17.1944 11.7246 16.9406 11.7246H2.33704Z" fill="white"/>
<path d="M22.1009 11.3496C21.7507 11.3496 21.4148 11.4893 21.1671 11.738C20.9194 11.9866 20.7803 12.3239 20.7803 12.6755C20.7803 13.0272 20.9194 13.3644 21.1671 13.6131C21.4147 13.8618 21.7507 14.0015 22.1009 14.0015H22.1009C22.4512 14.0015 22.7871 13.8618 23.0348 13.6131C23.2824 13.3644 23.4216 13.0272 23.4216 12.6755C23.4216 12.3239 23.2824 11.9866 23.0348 11.738C22.7871 11.4893 22.4512 11.3496 22.1009 11.3496Z" fill="#E6E6E6"/>
<path d="M41.9701 30.4731H36.0908V26.0605H41.9701V30.4731Z" fill="white"/>
<path d="M41.9701 30.4731H36.0908V26.0605H41.9701V30.4731ZM36.199 30.3656H41.862V26.1681H36.199V30.3656Z" fill="#E6E6E6"/>
<path d="M38.3993 22.556L34.0078 18.668L36.9576 15.3721L41.3491 19.2601L38.3993 22.556Z" fill="white"/>
<path d="M38.3993 22.556L34.0078 18.668L36.9576 15.3721L41.3491 19.2601L38.3993 22.556ZM34.1605 18.6592L38.3904 22.4042L41.1964 19.2689L36.9665 15.5239L34.1605 18.6592Z" fill="#E6E6E6"/>
<path d="M36.7339 16.7827L36.542 16.9971L39.775 19.8594L39.9668 19.6451L36.7339 16.7827Z" fill="#058B94"/>
<path d="M36.1587 17.4253L35.9668 17.6396L39.1998 20.502L39.3917 20.2877L36.1587 17.4253Z" fill="#058B94"/>
<path d="M35.5825 18.0688L35.3906 18.2832L38.6236 21.1456L38.8155 20.9312L35.5825 18.0688Z" fill="#058B94"/>
<path d="M35.1617 17.3076C35.1229 17.2386 35.0999 17.162 35.0942 17.0831C35.0885 17.0042 35.1002 16.9251 35.1286 16.8513C35.1569 16.7774 35.2012 16.7106 35.2583 16.6556C35.3154 16.6007 35.384 16.5588 35.4591 16.533L35.4624 14.6113L36.2996 15.1625L36.1682 16.9029C36.2033 17.0313 36.19 17.1681 36.1305 17.2873C36.0711 17.4066 35.9697 17.5 35.8457 17.5499C35.7216 17.5998 35.5834 17.6027 35.4574 17.558C35.3313 17.5134 35.2261 17.4243 35.1617 17.3076V17.3076Z" fill="#9E616A"/>
<path d="M35.2388 8.80487L35.6129 8.44629L35.8876 8.64354C35.8876 8.64354 36.158 8.9662 36.3742 9.93417C36.5905 10.9021 36.3742 16.226 36.3742 16.226L35.1848 16.0647L35.347 13.2683L34.8604 10.9021L35.2388 8.80487Z" fill="#058B94"/>
</svg>
