<svg width="40" height="39" viewBox="0 0 40 39" fill="none" xmlns="http://www.w3.org/2000/svg">
<path d="M32.0571 29.5234C31.7313 29.5234 31.4129 29.4255 31.1421 29.2422C30.8713 29.0588 30.6602 28.7981 30.5355 28.4932C30.4109 28.1882 30.3783 27.8526 30.4418 27.5289C30.5053 27.2052 30.6622 26.9078 30.8925 26.6744C31.1229 26.441 31.4163 26.282 31.7358 26.2176C32.0552 26.1532 32.3864 26.1863 32.6873 26.3126C32.9883 26.4389 33.2455 26.6528 33.4264 26.9273C33.6074 27.2017 33.704 27.5244 33.704 27.8545C33.7035 28.297 33.5298 28.7212 33.2211 29.034C32.9123 29.3469 32.4937 29.5229 32.0571 29.5234Z" fill="#CCCCCC"/>
<path d="M32.8179 27.7904H32.1212V26.988C32.1212 26.971 32.1145 26.9547 32.1026 26.9426C32.0907 26.9306 32.0746 26.9238 32.0578 26.9238C32.041 26.9238 32.0249 26.9306 32.013 26.9426C32.0012 26.9547 31.9945 26.971 31.9945 26.988V27.7904H31.2977C31.2809 27.7904 31.2648 27.7972 31.2529 27.8092C31.241 27.8212 31.2344 27.8376 31.2344 27.8546C31.2344 27.8716 31.241 27.8879 31.2529 27.9C31.2648 27.912 31.2809 27.9188 31.2977 27.9188H31.9945V28.7211C31.9945 28.7382 32.0012 28.7545 32.013 28.7665C32.0249 28.7786 32.041 28.7853 32.0578 28.7853C32.0746 28.7853 32.0907 28.7786 32.1026 28.7665C32.1145 28.7545 32.1212 28.7382 32.1212 28.7211V27.9188H32.8179C32.8347 27.9188 32.8509 27.912 32.8627 27.9C32.8746 27.8879 32.8813 27.8716 32.8813 27.8546C32.8813 27.8376 32.8746 27.8212 32.8627 27.8092C32.8509 27.7972 32.8347 27.7904 32.8179 27.7904Z" fill="white"/>
<path d="M38.3995 37.3443L37.6754 37.3442L37.3311 34.5137L38.3998 34.5137L38.3995 37.3443Z" fill="#FFB8B8"/>
<path d="M37.1586 37.1348H38.5552V38.0259H36.2793C36.2793 37.9088 36.302 37.793 36.3462 37.6848C36.3904 37.5767 36.4552 37.4785 36.5368 37.3958C36.6185 37.313 36.7154 37.2474 36.8221 37.2026C36.9288 37.1578 37.0431 37.1348 37.1586 37.1348Z" fill="#2F2E41"/>
<path d="M35.5177 37.3443L34.7936 37.3442L34.4492 34.5137L35.5179 34.5137L35.5177 37.3443Z" fill="#FFB8B8"/>
<path d="M34.2758 37.1348H35.6724V38.0259H33.3965C33.3965 37.9088 33.4192 37.793 33.4634 37.6848C33.5076 37.5767 33.5724 37.4785 33.654 37.3958C33.7357 37.313 33.8326 37.2474 33.9393 37.2026C34.046 37.1578 34.1603 37.1348 34.2758 37.1348Z" fill="#2F2E41"/>
<path d="M38.9574 27.5582C38.8991 27.4929 38.8556 27.4156 38.8301 27.3315C38.8045 27.2474 38.7974 27.1586 38.8093 27.0715C38.8213 26.9843 38.8519 26.9009 38.8991 26.827C38.9463 26.7531 39.0089 26.6907 39.0825 26.644L38.8583 25.2874L39.6385 24.9482L39.9287 26.8685C39.9979 26.999 40.0174 27.1507 39.9837 27.2948C39.9499 27.4389 39.8651 27.5655 39.7453 27.6505C39.6256 27.7355 39.4793 27.7731 39.334 27.7561C39.1888 27.739 39.0548 27.6686 38.9574 27.5582Z" fill="#FFB8B8"/>
<path d="M32.8485 26.9176C32.9166 26.863 32.9721 26.794 33.0111 26.7153C33.05 26.6367 33.0714 26.5503 33.0739 26.4624C33.0763 26.3744 33.0597 26.287 33.0252 26.2062C32.9907 26.1255 32.9391 26.0534 32.8741 25.995L33.3165 24.6946L32.6022 24.2295L32.003 26.0747C31.9135 26.1919 31.8695 26.3382 31.8793 26.486C31.8891 26.6338 31.9521 26.7729 32.0563 26.8767C32.1606 26.9806 32.2988 27.0422 32.4448 27.0497C32.5908 27.0572 32.7344 27.0102 32.8485 26.9176Z" fill="#FFB8B8"/>
<path d="M36.5577 17.3377C37.4169 17.3377 38.1135 16.6319 38.1135 15.7611C38.1135 14.8904 37.4169 14.1846 36.5577 14.1846C35.6985 14.1846 35.002 14.8904 35.002 15.7611C35.002 16.6319 35.6985 17.3377 36.5577 17.3377Z" fill="#FFB8B8"/>
<path d="M32.8011 25.9444C32.7744 25.9444 32.7478 25.9406 32.7222 25.9331L32.2688 25.8011C32.1963 25.7799 32.1351 25.7306 32.0985 25.6638C32.0619 25.5971 32.0528 25.5183 32.0732 25.4448L33.009 22.0965L34.314 18.8501C34.4437 18.5274 34.7149 18.3157 35.0215 18.2978C35.1616 18.2908 35.3006 18.3252 35.4218 18.3967C35.543 18.4682 35.6411 18.5738 35.7042 18.7007C35.7744 18.8364 35.813 18.9867 35.8169 19.14C35.8208 19.2932 35.79 19.4453 35.7268 19.5846L34.2435 22.8718L33.0643 25.7657C33.0428 25.8185 33.0063 25.8637 32.9595 25.8955C32.9126 25.9273 32.8575 25.9443 32.8011 25.9444Z" fill="#058B94"/>
<path d="M37.4356 17.0839L36.5712 17.0995C36.4811 17.1013 36.3919 17.0816 36.3108 17.0421C36.2296 17.0025 36.1588 16.9442 36.1039 16.8718C36.0491 16.7994 36.0118 16.715 35.9951 16.6253C35.9784 16.5356 35.9827 16.4432 36.0077 16.3556C36.0262 16.2922 36.04 16.2276 36.0492 16.1622C36.0589 16.0908 36.0608 16.0186 36.0549 15.9469C36.0494 15.8751 36.02 15.8072 35.9715 15.7545C35.923 15.7019 35.8583 15.6674 35.7879 15.6569C35.7176 15.6464 35.6458 15.6604 35.5843 15.6967C35.5229 15.733 35.4754 15.7893 35.4497 15.8565C35.3043 15.8586 34.9947 15.8106 34.8494 15.8127C34.5407 15.011 35.2133 13.9619 35.9372 13.5678C36.6752 13.1661 37.6332 13.5748 37.9161 14.412C38.3087 14.4192 38.6278 14.8116 38.6784 15.2533C38.729 15.6951 38.5496 16.1563 38.2753 16.4949C38.001 16.8334 37.6407 17.0802 37.4356 17.0839Z" fill="#2F2E41"/>
<path d="M34.5945 37.0803C34.5245 37.0799 34.4571 37.0535 34.405 37.006C34.3529 36.9586 34.3198 36.8934 34.3119 36.8229L33.9912 25.8955L38.0317 26.187L38.0348 26.2133C38.9479 33.9586 38.6358 36.6398 38.6325 36.6659C38.6302 36.7056 38.62 36.7443 38.6023 36.7797C38.5846 36.8151 38.5599 36.8465 38.5297 36.8718C38.4996 36.8971 38.4646 36.9159 38.4269 36.9268C38.3893 36.9378 38.3498 36.9409 38.311 36.9357L37.4181 36.9574C37.3504 36.9496 37.2877 36.9175 37.2413 36.867C37.195 36.8164 37.168 36.7506 37.1654 36.6816L36.3311 28.767C36.3259 28.7465 36.3138 28.7284 36.2968 28.716C36.2798 28.7036 36.2591 28.6977 36.2382 28.6992C36.2167 28.6992 36.1959 28.7067 36.1793 28.7205C36.1626 28.7342 36.1512 28.7535 36.1471 28.7748L35.8247 36.7153C35.8282 36.789 35.8035 36.8613 35.7558 36.9171C35.7082 36.9729 35.6412 37.008 35.5687 37.0151L34.6229 37.0788C34.6135 37.0798 34.604 37.0803 34.5945 37.0803Z" fill="#035D63"/>
<path d="M36.2713 27.2005C36.2471 27.2005 36.223 27.2001 36.1987 27.1994C35.0369 27.1639 34.128 26.2732 33.8771 26.001C33.8451 25.9663 33.8221 25.9241 33.8102 25.8782C33.7982 25.8323 33.7977 25.7841 33.8086 25.738L34.4788 22.8646L34.301 20.3665C34.2731 20.0198 34.3179 19.671 34.4326 19.3432C34.5473 19.0153 34.7293 18.7158 34.9664 18.4643C35.1641 18.2528 35.4043 18.0867 35.6708 17.9774C35.9373 17.8682 36.2239 17.8183 36.5112 17.8311C37.6421 17.8858 38.5344 18.9102 38.5425 20.1632C38.555 22.104 38.4986 22.2373 38.4801 22.2812C37.9157 23.6161 38.2239 25.49 38.3319 26.0325C38.3415 26.0809 38.3388 26.131 38.3239 26.1781C38.3091 26.2251 38.2827 26.2675 38.2472 26.3013C37.6264 26.8982 36.9619 27.2005 36.2713 27.2005Z" fill="#058B94"/>
<path d="M39.189 26.4702C39.1245 26.4702 39.062 26.448 39.0116 26.4072C38.9612 26.3665 38.9259 26.3096 38.9115 26.2459L38.22 23.1932L37.2933 19.704C37.2537 19.5561 37.2481 19.4009 37.277 19.2504C37.3058 19.1 37.3683 18.9582 37.4597 18.836C37.5427 18.7215 37.6567 18.6339 37.7878 18.5836C37.919 18.5334 38.0617 18.5227 38.1987 18.5529C38.4982 18.622 38.7311 18.8761 38.8064 19.2162L39.5637 22.6329L39.9414 26.0954C39.9495 26.1713 39.9277 26.2475 39.8807 26.3072C39.8336 26.3669 39.7652 26.4053 39.6904 26.4141L39.2216 26.4683C39.2108 26.4696 39.1999 26.4702 39.189 26.4702Z" fill="#058B94"/>
<path d="M1.95258 26.7997C2.03463 26.7427 2.10335 26.6681 2.1539 26.5813C2.20445 26.4945 2.2356 26.3975 2.24515 26.2971C2.2547 26.1968 2.24243 26.0955 2.20919 26.0005C2.17595 25.9055 2.12256 25.819 2.05278 25.7472L2.31674 19.7764L0.972884 19.9292L1.05096 25.7695C0.939625 25.8963 0.878061 26.0601 0.87793 26.2298C0.877799 26.3996 0.93911 26.5634 1.05025 26.6904C1.16138 26.8174 1.31462 26.8987 1.48093 26.9188C1.64723 26.9389 1.81505 26.8965 1.95258 26.7997Z" fill="#FFB8B8"/>
<path d="M4.4043 36.9066L5.16916 37.0428L5.9251 34.1181L4.92295 33.917L4.4043 36.9066Z" fill="#FFB8B8"/>
<path d="M6.51953 38.0254L4.11574 37.5972L4.27902 36.656L5.75407 36.9188C5.87603 36.9405 5.99258 36.9864 6.09705 37.0537C6.20153 37.1211 6.29188 37.2087 6.36296 37.3114C6.43404 37.4142 6.48445 37.5301 6.51132 37.6526C6.53818 37.7751 6.54097 37.9018 6.51953 38.0254Z" fill="#2F2E41"/>
<path d="M2.30481 37.2952H3.0814L3.45082 34.2598L2.30469 34.2598L2.30481 37.2952Z" fill="#FFB8B8"/>
<path d="M4.5791 38.0254L2.13845 38.0255L2.13841 37.0699L3.63608 37.0698C3.88618 37.0698 4.12603 37.1705 4.30288 37.3497C4.47973 37.5289 4.57909 37.772 4.5791 38.0254Z" fill="#2F2E41"/>
<path d="M5.60852 36.4635C5.5964 36.4635 5.58429 36.4628 5.57226 36.4613L4.65822 36.3851C4.6166 36.3801 4.57642 36.3666 4.5401 36.3455C4.50378 36.3243 4.4721 36.2958 4.44696 36.2619C4.42183 36.2279 4.40377 36.1891 4.39389 36.1478C4.38401 36.1066 4.38251 36.0637 4.38948 36.0218L5.23351 31.228L4.6632 28.1807C4.65855 28.1559 4.64522 28.1337 4.62567 28.1181C4.60613 28.1026 4.58168 28.0947 4.55684 28.0959C4.532 28.0972 4.50845 28.1075 4.49052 28.1249C4.47259 28.1424 4.46151 28.1659 4.4593 28.191L3.74633 36.3192C3.73849 36.4007 3.6997 36.476 3.63814 36.5292C3.57657 36.5823 3.49705 36.6091 3.41633 36.604L2.5552 36.5715C2.47973 36.5661 2.40884 36.5329 2.3559 36.4781C2.30296 36.4233 2.27163 36.3508 2.26785 36.2742L2.20996 26.5323L6.67445 25.9668L6.98632 30.8478L6.98508 30.853L5.90884 36.2241C5.89245 36.2923 5.85394 36.353 5.79949 36.3964C5.74504 36.4398 5.6778 36.4634 5.60852 36.4635Z" fill="#035D63"/>
<path d="M3.68175 15.907C4.54097 15.907 5.23751 15.2012 5.23751 14.3305C5.23751 13.4598 4.54097 12.7539 3.68175 12.7539C2.82252 12.7539 2.12598 13.4598 2.12598 14.3305C2.12598 15.2012 2.82252 15.907 3.68175 15.907Z" fill="#FFB8B8"/>
<path d="M5.14842 27.2448C4.9051 27.2463 4.66645 27.1771 4.46071 27.0454C3.70709 26.5681 2.85113 26.7578 2.40796 26.9134C2.36398 26.929 2.3171 26.9343 2.2708 26.929C2.22451 26.9236 2.18 26.9078 2.14062 26.8825C2.10169 26.8578 2.06879 26.8244 2.04439 26.7849C2.01999 26.7454 2.00472 26.7009 1.99972 26.6546L1.19384 19.3609C1.05879 18.1389 1.7852 16.99 2.92105 16.629C2.96373 16.6155 3.00712 16.6026 3.05124 16.5905C3.4047 16.4933 3.77488 16.4759 4.13572 16.5394C4.49655 16.6028 4.83928 16.7457 5.13978 16.9578C5.44587 17.1723 5.70186 17.4521 5.88973 17.7776C6.0776 18.1032 6.19279 18.4665 6.22718 18.842L6.90561 26.1845C6.91023 26.232 6.9039 26.28 6.88711 26.3246C6.87033 26.3692 6.84354 26.4093 6.80887 26.4417C6.57106 26.6646 5.8808 27.2447 5.14842 27.2448Z" fill="#058B94"/>
<path d="M2.69444 20.9253L0.876286 20.7227C0.824554 20.7169 0.774656 20.6999 0.729991 20.6728C0.685325 20.6458 0.646942 20.6093 0.617455 20.5658C0.587967 20.5224 0.568067 20.473 0.559113 20.421C0.550158 20.3691 0.552357 20.3158 0.565561 20.2648L1.02835 18.4773C1.05895 18.2093 1.19319 17.9644 1.40164 17.7965C1.61009 17.6286 1.87574 17.5514 2.14033 17.5816C2.40492 17.6119 2.64687 17.7473 2.81313 17.9581C2.97938 18.1688 3.05638 18.4378 3.02722 18.706L3.09593 20.5467C3.09788 20.5994 3.0886 20.6519 3.06872 20.7006C3.04884 20.7494 3.01882 20.7932 2.98072 20.8291C2.94262 20.8651 2.89733 20.8922 2.84792 20.9088C2.79852 20.9254 2.74617 20.931 2.69444 20.9253V20.9253Z" fill="#058B94"/>
<path d="M6.89794 26.5439C6.97262 26.4773 7.03197 26.3949 7.07183 26.3026C7.11168 26.2102 7.13107 26.1101 7.12862 26.0093C7.12617 25.9085 7.10195 25.8095 7.05765 25.7193C7.01336 25.629 6.95007 25.5497 6.87225 25.4869L6.42423 19.5273L5.10742 19.8277L5.88039 25.6314C5.78495 25.7709 5.74331 25.941 5.76336 26.1095C5.78342 26.278 5.86377 26.4332 5.9892 26.5457C6.11462 26.6582 6.27641 26.7201 6.4439 26.7198C6.61139 26.7195 6.77294 26.6569 6.89794 26.5439Z" fill="#FFB8B8"/>
<path d="M4.60275 20.5498C4.56464 20.5139 4.53461 20.4701 4.51474 20.4213C4.49486 20.3726 4.48559 20.3201 4.48757 20.2674L4.55627 18.4267C4.52712 18.1585 4.60411 17.8895 4.77036 17.6788C4.93662 17.468 5.17857 17.3326 5.44316 17.3023C5.70775 17.2721 5.9734 17.3493 6.18185 17.5172C6.3903 17.6851 6.52454 17.93 6.55514 18.198L7.01793 19.9855C7.03114 20.0365 7.03333 20.0898 7.02438 20.1417C7.01542 20.1937 6.99553 20.2431 6.96604 20.2865C6.93655 20.33 6.89817 20.3665 6.8535 20.3935C6.80884 20.4206 6.75894 20.4376 6.70721 20.4434L4.88905 20.646C4.83731 20.6518 4.78495 20.6462 4.73554 20.6296C4.68613 20.613 4.64084 20.5858 4.60275 20.5498Z" fill="#058B94"/>
<path d="M3.58956 15.9666C3.56191 15.9666 3.53435 15.9633 3.50743 15.9569L3.49953 15.9549C2.13167 15.7429 1.82938 14.94 1.76302 14.6047C1.69434 14.2576 1.77255 13.9225 1.94926 13.7923C1.85292 13.484 1.86838 13.2107 1.99533 12.9796C2.21674 12.5764 2.69724 12.4401 2.76168 12.4234C3.14542 12.1366 3.60455 12.3281 3.68809 12.3669C4.43037 12.0886 4.71408 12.3203 4.7654 12.372C5.0972 12.4324 5.29945 12.5623 5.3666 12.7581C5.49271 13.126 5.09388 13.5836 5.07684 13.6029L5.06799 13.6129L4.47383 13.6416C4.41745 13.6443 4.36226 13.659 4.31185 13.6847C4.26144 13.7105 4.21693 13.7466 4.18121 13.7909C4.14548 13.8352 4.11934 13.8866 4.10449 13.9418C4.08963 13.997 4.08638 14.0547 4.09496 14.1112C4.11104 14.1842 4.13136 14.2561 4.1558 14.3266C4.25727 14.648 4.3333 14.9225 4.23524 15.0269C4.21302 15.0471 4.18564 15.0605 4.15623 15.0657C4.12683 15.0709 4.09658 15.0675 4.06895 15.0561C3.97605 15.031 3.91297 15.0362 3.88155 15.0718C3.83276 15.127 3.84765 15.2666 3.92349 15.465C3.94728 15.5277 3.95369 15.5959 3.94201 15.662C3.93033 15.7282 3.90102 15.7898 3.85724 15.8403C3.82428 15.8797 3.78328 15.9114 3.73707 15.9332C3.69086 15.955 3.64053 15.9664 3.58956 15.9666Z" fill="#2F2E41"/>
<path d="M8.93136 38.1255H0.063343C0.0465434 38.1255 0.0304308 38.1187 0.0185517 38.1066C0.0066726 38.0946 0 38.0783 0 38.0613C0 38.0442 0.0066726 38.0279 0.0185517 38.0159C0.0304308 38.0038 0.0465434 37.9971 0.063343 37.9971H8.93136C8.94816 37.9971 8.96427 38.0038 8.97615 38.0159C8.98803 38.0279 8.9947 38.0442 8.9947 38.0613C8.9947 38.0783 8.98803 38.0946 8.97615 38.1066C8.96427 38.1187 8.94816 38.1255 8.93136 38.1255Z" fill="#CCCCCC"/>
<path d="M39.8425 38.1255H30.9745C30.9577 38.1255 30.9416 38.1187 30.9297 38.1066C30.9178 38.0946 30.9111 38.0783 30.9111 38.0613C30.9111 38.0442 30.9178 38.0279 30.9297 38.0159C30.9416 38.0038 30.9577 37.9971 30.9745 37.9971H39.8425C39.8593 37.9971 39.8754 38.0038 39.8873 38.0159C39.8992 38.0279 39.9058 38.0442 39.9058 38.0613C39.9058 38.0783 39.8992 38.0946 39.8873 38.1066C39.8754 38.1187 39.8593 38.1255 39.8425 38.1255Z" fill="#CCCCCC"/>
<path d="M27.1564 27.2165H11.8274C11.2396 27.2158 10.6761 26.9789 10.2604 26.5577C9.84481 26.1366 9.61102 25.5655 9.61035 24.9699V2.24665C9.61102 1.65101 9.84481 1.07996 10.2604 0.658774C10.6761 0.237593 11.2396 0.000676006 11.8274 0H27.1564C27.7441 0.000676006 28.3077 0.237593 28.7233 0.658774C29.1389 1.07996 29.3727 1.65101 29.3734 2.24665V24.9699C29.3727 25.5655 29.1389 26.1366 28.7233 26.5577C28.3077 26.9789 27.7441 27.2158 27.1564 27.2165Z" fill="white"/>
<path d="M24.7489 18.0391H14.234C13.1599 18.0338 13.1554 16.3758 14.2341 16.3701L24.7489 16.3701C25.8223 16.3752 25.8281 18.0334 24.7489 18.0391Z" fill="#CCCCCC"/>
<path d="M24.7489 4.68359H14.234C13.1599 4.67834 13.1554 3.02033 14.2341 3.01465L24.7489 3.01465C25.8223 3.01974 25.8281 4.67789 24.7489 4.68359Z" fill="#CCCCCC"/>
<path d="M24.7489 21.1201H14.234C13.1599 21.1149 13.1554 19.4569 14.2341 19.4512L24.7489 19.4512C25.8223 19.4563 25.8281 21.1144 24.7489 21.1201Z" fill="#CCCCCC"/>
<path d="M24.7489 24.2012H14.234C13.1599 24.1959 13.1554 22.5379 14.2341 22.5322L24.7489 22.5322C25.8223 22.5373 25.8281 24.1955 24.7489 24.2012Z" fill="#CCCCCC"/>
<path d="M24.5589 14.3677H14.4241C14.147 14.3674 13.8813 14.2557 13.6854 14.0571C13.4894 13.8586 13.3792 13.5894 13.3789 13.3086V7.55718C13.3792 7.27638 13.4894 7.00717 13.6854 6.80861C13.8813 6.61005 14.147 6.49836 14.4241 6.49805H24.5589C24.836 6.49836 25.1017 6.61005 25.2976 6.80861C25.4936 7.00717 25.6038 7.27638 25.6041 7.55718V13.3086C25.6038 13.5894 25.4936 13.8586 25.2976 14.0571C25.1017 14.2557 24.836 14.3674 24.5589 14.3677Z" fill="#058B94"/>
<path d="M27.1564 27.2165H11.8274C11.2396 27.2158 10.6761 26.9789 10.2604 26.5577C9.84481 26.1366 9.61102 25.5655 9.61035 24.9699V2.24665C9.61102 1.65101 9.84481 1.07996 10.2604 0.658774C10.6761 0.237593 11.2396 0.000676006 11.8274 0H27.1564C27.7441 0.000676006 28.3077 0.237593 28.7233 0.658774C29.1389 1.07996 29.3727 1.65101 29.3734 2.24665V24.9699C29.3727 25.5655 29.1389 26.1366 28.7233 26.5577C28.3077 26.9789 27.7441 27.2158 27.1564 27.2165ZM11.8274 0.385139C11.3403 0.385697 10.8734 0.581999 10.529 0.930979C10.1847 1.27996 9.99096 1.75312 9.99041 2.24665V24.9699C9.99096 25.4634 10.1847 25.9366 10.529 26.2855C10.8734 26.6345 11.3403 26.8308 11.8274 26.8314H27.1564C27.6434 26.8308 28.1103 26.6345 28.4547 26.2855C28.799 25.9366 28.9928 25.4634 28.9933 24.9699V2.24665C28.9928 1.75311 28.799 1.27996 28.4547 0.930977C28.1103 0.581997 27.6434 0.385696 27.1564 0.385139H11.8274Z" fill="#E6E6E6"/>
</svg>
