<svg width="45" height="36" viewBox="0 0 45 36" fill="none" xmlns="http://www.w3.org/2000/svg">
<path d="M49.9987 37.15C49.9909 38.0289 49.9263 38.9064 49.8053 39.777C49.8011 39.8076 49.7964 39.8382 49.7922 39.8688L41.5335 39.8228C41.5093 39.7924 41.4854 39.7617 41.4623 39.7306C41.3852 39.6277 41.3129 39.5218 41.2466 39.4123C40.9277 38.8849 40.7818 38.2673 40.928 37.8412L40.9307 37.8346C40.9622 37.7413 41.012 37.6552 41.0771 37.5811C41.4106 37.2069 42.0849 37.2693 42.6969 37.5713C42.148 36.9725 41.711 36.2169 41.6777 35.5425C41.6452 34.8846 41.9903 34.4147 42.3647 34.0153C42.377 34.0021 42.3892 33.9893 42.4015 33.9765C42.4075 33.9698 42.4138 33.9636 42.4198 33.957C42.7118 33.6527 43.0523 33.3526 43.5452 33.3889C44.0857 33.4288 44.685 33.88 45.1052 34.4059C45.5255 34.9313 45.8047 35.5282 46.0877 36.1108C46.3711 36.693 46.6777 37.2901 47.1325 37.7877C46.5166 37.0112 46.0199 36.1277 45.8365 35.2685C45.653 34.4093 45.8145 33.584 46.3634 33.1794C46.5301 33.0603 46.7229 32.9828 46.9258 32.9532C46.9495 32.9493 46.9736 32.9461 46.998 32.9433C47.5062 32.8857 48.113 33.0608 48.6292 33.4795C49.1977 33.9406 49.5919 34.624 49.788 35.2728C49.9841 35.9216 50.005 36.5462 49.9987 37.15Z" fill="#F2F2F2"/>
<path d="M46.6317 39.8516L46.5341 39.851C46.512 39.8203 46.4904 39.7896 46.4684 39.7589C45.9509 39.0357 45.4335 38.3124 44.9163 37.5892C44.0692 36.4052 43.2224 35.2212 42.3758 34.0372C42.3708 34.0308 42.3671 34.0235 42.3648 34.0157C42.3576 33.9895 42.3769 33.9742 42.4017 33.9769C42.4121 33.9784 42.4221 33.982 42.431 33.9877C42.4399 33.9933 42.4475 34.0008 42.4533 34.0096C42.9282 34.6736 43.403 35.3373 43.8776 36.0008C44.7203 37.1789 45.5629 38.3569 46.4053 39.5348C46.4589 39.6095 46.5124 39.6847 46.566 39.7594C46.5881 39.7901 46.6101 39.8209 46.6317 39.8516Z" fill="white"/>
<path d="M8.9317 21.6873H0.843496C0.619865 21.687 0.405467 21.5984 0.247336 21.4408C0.089205 21.2832 0.000254838 21.0695 0 20.8466V11.1639C0.000254838 10.941 0.089205 10.7273 0.247336 10.5697C0.405467 10.4121 0.619865 10.3235 0.843496 10.3232H8.9317C9.15533 10.3235 9.36972 10.4121 9.52785 10.5697C9.68599 10.7273 9.77493 10.941 9.77519 11.1639V20.8466C9.77493 21.0695 9.68599 21.2832 9.52785 21.4408C9.36972 21.5984 9.15533 21.687 8.9317 21.6873ZM0.843496 10.4305C0.648403 10.4307 0.461363 10.5081 0.323411 10.6456C0.185459 10.7831 0.107861 10.9695 0.107641 11.1639V20.8466C0.107861 21.041 0.185459 21.2275 0.323411 21.3649C0.461363 21.5024 0.648403 21.5798 0.843496 21.58H8.9317C9.12679 21.5798 9.31383 21.5024 9.45178 21.3649C9.58973 21.2275 9.66733 21.041 9.66755 20.8466V11.1639C9.66733 10.9695 9.58973 10.7831 9.45178 10.6456C9.31383 10.5081 9.12679 10.4307 8.93169 10.4305H0.843496Z" fill="#3F3D56"/>
<path d="M6.77835 11.1194H2.99698C2.81861 11.1192 2.64761 11.0485 2.52149 10.9228C2.39536 10.7971 2.32442 10.6266 2.32422 10.4489V10.3053C2.32442 10.1275 2.39536 9.95707 2.52149 9.83137C2.64761 9.70567 2.81861 9.63497 2.99698 9.63477H6.77835C6.95671 9.63497 7.12772 9.70567 7.25384 9.83137C7.37996 9.95707 7.45091 10.1275 7.45111 10.3053V10.4489C7.45091 10.6266 7.37996 10.7971 7.25384 10.9228C7.12772 11.0485 6.95671 11.1192 6.77835 11.1194Z" fill="#CCCCCC"/>
<path d="M8.59642 16.3872H1.17825C1.12793 16.3873 1.0781 16.3774 1.03159 16.3583C0.985086 16.3391 0.942825 16.311 0.907223 16.2756C0.871622 16.2402 0.843379 16.1981 0.824109 16.1517C0.80484 16.1054 0.794922 16.0558 0.794922 16.0056C0.794922 15.9555 0.80484 15.9058 0.824109 15.8595C0.843379 15.8132 0.871622 15.7711 0.907223 15.7356C0.942825 15.7002 0.985086 15.6721 1.03159 15.6529C1.0781 15.6338 1.12793 15.624 1.17825 15.624H8.59642C8.69788 15.6241 8.79515 15.6644 8.86685 15.7359C8.93856 15.8075 8.97884 15.9045 8.97884 16.0056C8.97884 16.1067 8.93856 16.2037 8.86685 16.2753C8.79515 16.3468 8.69788 16.3871 8.59642 16.3872Z" fill="#035D63"/>
<path d="M8.59642 18.0093H1.17825C1.12793 18.0093 1.0781 17.9995 1.03159 17.9803C0.985086 17.9612 0.942825 17.9331 0.907223 17.8977C0.871622 17.8622 0.843379 17.8201 0.824109 17.7738C0.80484 17.7275 0.794922 17.6778 0.794922 17.6277C0.794922 17.5775 0.80484 17.5279 0.824109 17.4815C0.843379 17.4352 0.871622 17.3931 0.907223 17.3577C0.942825 17.3223 0.985086 17.2942 1.03159 17.275C1.0781 17.2559 1.12793 17.246 1.17825 17.2461H8.59642C8.69788 17.2462 8.79515 17.2865 8.86685 17.358C8.93856 17.4296 8.97884 17.5266 8.97884 17.6277C8.97884 17.7288 8.93856 17.8258 8.86685 17.8973C8.79515 17.9689 8.69788 18.0091 8.59642 18.0093Z" fill="#035D63"/>
<path d="M6.61044 14.7651H3.16458C3.11426 14.7652 3.06442 14.7554 3.01792 14.7362C2.97141 14.7171 2.92915 14.689 2.89355 14.6535C2.85795 14.6181 2.82971 14.576 2.81044 14.5297C2.79117 14.4833 2.78125 14.4337 2.78125 14.3835C2.78125 14.3334 2.79117 14.2837 2.81044 14.2374C2.82971 14.1911 2.85795 14.149 2.89355 14.1136C2.92915 14.0781 2.97141 14.05 3.01792 14.0309C3.06442 14.0117 3.11426 14.0019 3.16458 14.002H6.61044C6.66076 14.0019 6.71059 14.0117 6.7571 14.0309C6.8036 14.05 6.84586 14.0781 6.88146 14.1136C6.91706 14.149 6.94531 14.1911 6.96458 14.2374C6.98385 14.2837 6.99377 14.3334 6.99377 14.3835C6.99377 14.4337 6.98385 14.4833 6.96458 14.5297C6.94531 14.576 6.91706 14.6181 6.88146 14.6535C6.84586 14.689 6.8036 14.7171 6.7571 14.7362C6.71059 14.7554 6.66076 14.7652 6.61044 14.7651Z" fill="#035D63"/>
<path d="M26.1133 12.0525H18.0251C17.8015 12.0523 17.5871 11.9636 17.429 11.806C17.2708 11.6484 17.1819 11.4347 17.1816 11.2119V1.52913C17.1819 1.30626 17.2708 1.09258 17.429 0.934979C17.5871 0.77738 17.8015 0.688729 18.0251 0.688477H26.1133C26.337 0.688729 26.5514 0.77738 26.7095 0.934979C26.8676 1.09258 26.9566 1.30626 26.9568 1.52913V11.2119C26.9566 11.4347 26.8676 11.6484 26.7095 11.806C26.5514 11.9636 26.337 12.0523 26.1133 12.0525ZM18.0251 0.795756C17.83 0.795974 17.643 0.87331 17.5051 1.0108C17.3671 1.14829 17.2895 1.3347 17.2893 1.52913V11.2119C17.2895 11.4063 17.3671 11.5927 17.5051 11.7302C17.643 11.8677 17.83 11.945 18.0251 11.9452H26.1133C26.3084 11.945 26.4955 11.8677 26.6334 11.7302C26.7714 11.5927 26.849 11.4063 26.8492 11.2119V1.52913C26.849 1.3347 26.7714 1.14829 26.6334 1.0108C26.4955 0.87331 26.3084 0.795973 26.1133 0.795756H18.0251Z" fill="#3F3D56"/>
<path d="M23.96 1.48459H20.1786C20.0003 1.48439 19.8292 1.41369 19.7031 1.28799C19.577 1.16229 19.5061 0.991864 19.5059 0.8141V0.670493C19.5061 0.492729 19.577 0.322302 19.7031 0.196604C19.8292 0.0709053 20.0003 0.000199896 20.1786 0H23.96C24.1383 0.000199896 24.3093 0.0709053 24.4355 0.196604C24.5616 0.322302 24.6325 0.492729 24.6327 0.670493V0.8141C24.6325 0.991864 24.5616 1.16229 24.4355 1.28799C24.3093 1.41369 24.1383 1.48439 23.96 1.48459Z" fill="#CCCCCC"/>
<path d="M25.7781 6.75243H18.3599C18.3096 6.75249 18.2597 6.74266 18.2132 6.72351C18.1667 6.70436 18.1245 6.67626 18.0889 6.64082C18.0533 6.60539 18.025 6.5633 18.0058 6.51697C17.9865 6.47065 17.9766 6.42099 17.9766 6.37084C17.9766 6.32069 17.9865 6.27104 18.0058 6.22471C18.025 6.17839 18.0533 6.1363 18.0889 6.10086C18.1245 6.06542 18.1667 6.03732 18.2132 6.01817C18.2597 5.99902 18.3096 5.9892 18.3599 5.98926H25.7781C25.8284 5.9892 25.8782 5.99902 25.9247 6.01817C25.9712 6.03732 26.0135 6.06542 26.0491 6.10086C26.0847 6.1363 26.1129 6.17839 26.1322 6.22471C26.1515 6.27104 26.1614 6.32069 26.1614 6.37084C26.1614 6.42099 26.1515 6.47065 26.1322 6.51697C26.1129 6.5633 26.0847 6.60539 26.0491 6.64082C26.0135 6.67626 25.9712 6.70436 25.9247 6.72351C25.8782 6.74266 25.8284 6.75249 25.7781 6.75243Z" fill="#035D63"/>
<path d="M25.7776 8.37352H18.3594C18.3092 8.37352 18.2594 8.36365 18.2129 8.34447C18.1665 8.3253 18.1243 8.29719 18.0887 8.26176C18.0532 8.22632 18.0249 8.18426 18.0057 8.13796C17.9865 8.09167 17.9766 8.04205 17.9766 7.99194C17.9766 7.94183 17.9865 7.89221 18.0057 7.84591C18.0249 7.79961 18.0532 7.75755 18.0887 7.72211C18.1243 7.68668 18.1665 7.65857 18.2129 7.6394C18.2594 7.62022 18.3092 7.61035 18.3594 7.61035H25.7776C25.8279 7.61035 25.8777 7.62022 25.9241 7.6394C25.9706 7.65857 26.0128 7.68668 26.0483 7.72211C26.0839 7.75755 26.1121 7.79961 26.1313 7.84591C26.1506 7.89221 26.1605 7.94183 26.1605 7.99194C26.1605 8.04205 26.1506 8.09167 26.1313 8.13796C26.1121 8.18426 26.0839 8.22632 26.0483 8.26176C26.0128 8.29719 25.9706 8.3253 25.9241 8.34447C25.8777 8.36365 25.8279 8.37352 25.7776 8.37352Z" fill="#035D63"/>
<path d="M23.7921 5.13036H20.3462C20.2959 5.13042 20.2461 5.12059 20.1996 5.10144C20.1531 5.08229 20.1108 5.05419 20.0752 5.01875C20.0396 4.98331 20.0113 4.94123 19.9921 4.8949C19.9728 4.84858 19.9629 4.79892 19.9629 4.74877C19.9629 4.69862 19.9728 4.64897 19.9921 4.60264C20.0113 4.55632 20.0396 4.51423 20.0752 4.47879C20.1108 4.44335 20.1531 4.41525 20.1996 4.3961C20.2461 4.37695 20.2959 4.36713 20.3462 4.36719H23.7921C23.8936 4.36719 23.991 4.40739 24.0628 4.47895C24.1346 4.55051 24.175 4.64757 24.175 4.74877C24.175 4.84998 24.1346 4.94703 24.0628 5.01859C23.991 5.09015 23.8936 5.13036 23.7921 5.13036Z" fill="#035D63"/>
<path d="M42.6151 28.3667L35.5131 32.2241C35.3166 32.3306 35.0858 32.355 34.8713 32.292C34.6568 32.2291 34.4761 32.0838 34.3688 31.8883L29.7197 23.3862C29.6129 23.1903 29.5884 22.9603 29.6516 22.7465C29.7148 22.5327 29.8605 22.3526 30.0567 22.2457L37.1587 18.3883C37.3552 18.2819 37.586 18.2575 37.8005 18.3204C38.0151 18.3834 38.1958 18.5286 38.303 18.7242L42.9521 27.2263C43.0589 27.4221 43.0834 27.6521 43.0202 27.8659C42.957 28.0797 42.8113 28.2598 42.6151 28.3667ZM30.1082 22.3399C29.937 22.4332 29.8099 22.5903 29.7548 22.7768C29.6997 22.9633 29.721 23.164 29.8142 23.3348L34.4633 31.8369C34.5569 32.0076 34.7145 32.1342 34.9017 32.1892C35.0888 32.2441 35.2902 32.2228 35.4616 32.1299L42.5636 28.2725C42.7348 28.1793 42.8619 28.0222 42.917 27.8357C42.9721 27.6491 42.9508 27.4484 42.8576 27.2776L38.2085 18.7755C38.1149 18.6049 37.9573 18.4782 37.7701 18.4233C37.583 18.3683 37.3816 18.3896 37.2102 18.4825L30.1082 22.3399Z" fill="#3F3D56"/>
<path d="M35.6493 20.1146L32.329 21.918C32.1723 22.0029 31.9882 22.0223 31.8171 21.9721C31.646 21.9219 31.5019 21.8061 31.4163 21.6501L31.3474 21.524C31.2622 21.3678 31.2427 21.1843 31.2931 21.0138C31.3435 20.8433 31.4597 20.6996 31.6162 20.6144L34.9365 18.811C35.0932 18.7261 35.2773 18.7066 35.4484 18.7568C35.6195 18.8071 35.7636 18.9229 35.8491 19.0789L35.9181 19.205C36.0033 19.3611 36.0228 19.5446 35.9724 19.7152C35.922 19.8857 35.8058 20.0293 35.6493 20.1146Z" fill="#CCCCCC"/>
<path d="M39.7751 23.8729L33.2614 27.4108C33.2173 27.4348 33.1688 27.4498 33.1188 27.4551C33.0688 27.4605 33.0182 27.4559 32.97 27.4418C32.9218 27.4276 32.8768 27.4041 32.8377 27.3726C32.7986 27.3412 32.7661 27.3023 32.742 27.2583C32.7179 27.2143 32.7028 27.166 32.6975 27.1162C32.6921 27.0664 32.6967 27.016 32.7109 26.9679C32.7251 26.9198 32.7487 26.875 32.7803 26.836C32.8118 26.797 32.8508 26.7646 32.895 26.7407L39.4086 23.2028C39.4978 23.1543 39.6026 23.1432 39.7 23.1718C39.7974 23.2004 39.8795 23.2664 39.9281 23.3552C39.9766 23.4441 39.9878 23.5486 39.9591 23.6456C39.9304 23.7427 39.8642 23.8245 39.7751 23.8729Z" fill="#035D63"/>
<path d="M40.5544 25.2967L34.0407 28.8346C33.9966 28.8586 33.9481 28.8737 33.8981 28.879C33.8481 28.8843 33.7975 28.8797 33.7493 28.8656C33.7011 28.8514 33.6561 28.8279 33.617 28.7965C33.5779 28.765 33.5454 28.7261 33.5213 28.6821C33.4972 28.6381 33.4821 28.5899 33.4768 28.54C33.4714 28.4902 33.476 28.4398 33.4902 28.3917C33.5044 28.3437 33.528 28.2989 33.5596 28.2599C33.5911 28.2209 33.6301 28.1885 33.6743 28.1645L40.1879 24.6266C40.2321 24.6026 40.2805 24.5875 40.3305 24.5822C40.3805 24.5769 40.4311 24.5815 40.4793 24.5956C40.5276 24.6098 40.5725 24.6333 40.6116 24.6647C40.6508 24.6962 40.6833 24.7351 40.7073 24.7791C40.7314 24.8231 40.7465 24.8714 40.7519 24.9212C40.7572 24.971 40.7526 25.0214 40.7384 25.0695C40.7242 25.1175 40.7007 25.1623 40.6691 25.2013C40.6375 25.2403 40.5985 25.2727 40.5544 25.2967Z" fill="#035D63"/>
<path d="M37.252 23.3954L34.2262 25.0388C34.1821 25.0627 34.1336 25.0778 34.0836 25.0831C34.0336 25.0884 33.9831 25.0839 33.9349 25.0697C33.8866 25.0556 33.8417 25.0321 33.8025 25.0006C33.7634 24.9691 33.7309 24.9303 33.7068 24.8863C33.6828 24.8423 33.6677 24.794 33.6623 24.7442C33.657 24.6944 33.6615 24.644 33.6758 24.5959C33.69 24.5478 33.7135 24.503 33.7451 24.464C33.7767 24.425 33.8157 24.3926 33.8598 24.3686L36.8855 22.7252C36.9297 22.7013 36.9781 22.6862 37.0281 22.6809C37.0781 22.6755 37.1287 22.6801 37.1769 22.6943C37.2251 22.7084 37.2701 22.7319 37.3092 22.7634C37.3483 22.7948 37.3809 22.8337 37.4049 22.8777C37.429 22.9217 37.4441 22.97 37.4494 23.0198C37.4548 23.0696 37.4502 23.12 37.436 23.1681C37.4218 23.2162 37.3982 23.261 37.3667 23.3C37.3351 23.339 37.2961 23.3714 37.252 23.3954Z" fill="#035D63"/>
<path d="M15.0271 8.76899L11.2441 10.958L11.2982 11.0508L15.0811 8.86176L15.0271 8.76899Z" fill="#3F3D56"/>
<path d="M15.1875 9.35646L15.7218 8.42871L14.6484 8.43123L15.1875 9.35646Z" fill="#3F3D56"/>
<path d="M26.2241 23.1691C26.2156 23.1691 26.2071 23.1671 26.1995 23.1632L11.66 15.7195C11.6473 15.713 11.6378 15.7017 11.6334 15.6882C11.6291 15.6746 11.6303 15.6599 11.6368 15.6473C11.6433 15.6347 11.6546 15.6251 11.6682 15.6208C11.6817 15.6164 11.6965 15.6176 11.7092 15.624L26.2487 23.0677C26.2595 23.0732 26.2681 23.0822 26.2731 23.0931C26.2781 23.104 26.2793 23.1164 26.2764 23.1281C26.2736 23.1398 26.2669 23.1502 26.2574 23.1576C26.2479 23.165 26.2362 23.1691 26.2241 23.1691Z" fill="#3F3D56"/>
<path d="M25.8379 23.52L26.9099 23.4675L26.3284 22.5684L25.8379 23.52Z" fill="#3F3D56"/>
<path d="M41.225 29.324C41.1494 29.2865 41.0829 29.2329 41.0302 29.167C40.9776 29.101 40.9401 29.0244 40.9204 28.9425C40.9007 28.8606 40.8992 28.7754 40.9161 28.6928C40.9331 28.6103 40.9679 28.5325 41.0183 28.4648L40.5859 24.252H41.5203L41.8639 28.3656C41.9723 28.4574 42.0431 28.5857 42.063 28.7262C42.0829 28.8666 42.0503 29.0094 41.9716 29.1276C41.8928 29.2457 41.7734 29.331 41.6358 29.3672C41.4982 29.4034 41.352 29.388 41.225 29.324V29.324Z" fill="#A0616A"/>
<path d="M40.3668 21.9269C41.0969 21.9269 41.6887 21.337 41.6887 20.6094C41.6887 19.8818 41.0969 19.292 40.3668 19.292C39.6368 19.292 39.0449 19.8818 39.0449 20.6094C39.0449 21.337 39.6368 21.9269 40.3668 21.9269Z" fill="#A0616A"/>
<path d="M40.0661 26.6994L38.0932 26.27C38.0414 26.2586 37.9947 26.2306 37.9604 26.1902C37.926 26.1499 37.9059 26.0994 37.9031 26.0466C37.8803 25.6078 37.8639 24.4728 38.203 23.4132C38.2685 23.2101 38.3742 23.0221 38.5139 22.8603C38.6536 22.6986 38.8244 22.5665 39.0162 22.4717C39.208 22.3769 39.417 22.3215 39.6307 22.3086C39.8444 22.2957 40.0585 22.3257 40.2604 22.3967C40.4734 22.4713 40.6682 22.59 40.832 22.7449C40.9958 22.8998 41.1249 23.0875 41.2108 23.2956C41.2967 23.5037 41.3374 23.7276 41.3304 23.9525C41.3234 24.1775 41.2687 24.3984 41.17 24.6008C40.7325 25.4961 40.457 26.1445 40.3511 26.528C40.3346 26.5875 40.2959 26.6384 40.2429 26.6703C40.1899 26.7022 40.1266 26.7126 40.0661 26.6994Z" fill="#058B94"/>
<path d="M38.2207 37.8068L37.2049 37.7288C37.148 37.7246 37.0945 37.7005 37.0538 37.6607C37.0131 37.621 36.9878 37.5682 36.9824 37.5116C36.8376 36.0067 36.2025 28.3807 37.9203 26.0328L37.9251 26.0262L37.9328 26.0234C37.9482 26.0178 39.4801 25.4733 40.3591 26.4711C40.3867 26.5028 40.4055 26.5411 40.4137 26.5823C40.4219 26.6235 40.4191 26.6661 40.4057 26.7059L40.3722 26.8061C40.3626 26.8345 40.36 26.8648 40.3647 26.8945C40.3693 26.9241 40.3811 26.9522 40.3989 26.9763C40.6428 27.305 41.4638 28.5707 41.7865 31.0598C41.7885 31.0756 41.7926 31.0912 41.7986 31.106L44.1809 36.9386C44.1931 36.9684 44.1992 37.0003 44.1988 37.0324C44.1984 37.0646 44.1916 37.0963 44.1787 37.1258C44.1659 37.1553 44.1472 37.1819 44.1239 37.2041C44.1005 37.2264 44.073 37.2437 44.0428 37.2551L43.2932 37.5398C43.2386 37.5602 43.1785 37.5604 43.1238 37.5404C43.069 37.5204 43.0233 37.4814 42.9949 37.4307L39.5559 31.2122C39.5422 31.1875 39.521 31.1677 39.4953 31.1556C39.4696 31.1436 39.4408 31.1399 39.413 31.1452C39.3851 31.1505 39.3596 31.1644 39.3401 31.185C39.3207 31.2055 39.3082 31.2317 39.3046 31.2597L38.4794 37.5971C38.4718 37.6553 38.4433 37.7086 38.3992 37.7473C38.355 37.786 38.2983 37.8074 38.2395 37.8075C38.2332 37.8075 38.227 37.8072 38.2207 37.8068Z" fill="#035D63"/>
<path d="M35.2283 22.1396C35.2349 22.1685 35.2392 22.1979 35.2412 22.2275L37.5531 23.5568L38.1151 23.2344L38.7142 24.0161L37.775 24.6832C37.6991 24.7371 37.6078 24.765 37.5146 24.7627C37.4215 24.7605 37.3316 24.7282 37.2584 24.6707L34.8744 22.7962C34.7668 22.8359 34.6496 22.842 34.5384 22.8137C34.4273 22.7854 34.3274 22.724 34.2521 22.6378C34.1768 22.5515 34.1296 22.4445 34.1168 22.3309C34.104 22.2172 34.1263 22.1024 34.1805 22.0017C34.2348 21.901 34.3186 21.8191 34.4207 21.767C34.5228 21.7149 34.6385 21.695 34.7522 21.7099C34.8659 21.7249 34.9724 21.774 35.0575 21.8508C35.1425 21.9275 35.2021 22.0282 35.2283 22.1396V22.1396Z" fill="#A0616A"/>
<path d="M37.585 23.4244C37.592 23.3904 37.6062 23.3583 37.6267 23.3303C37.6473 23.3023 37.6736 23.2791 37.704 23.2622L38.765 22.6709C38.906 22.5625 39.0843 22.5142 39.2609 22.5366C39.4376 22.5591 39.5981 22.6504 39.7072 22.7905C39.8164 22.9307 39.8654 23.1083 39.8434 23.2844C39.8214 23.4605 39.7302 23.6208 39.5899 23.73L38.744 24.6054C38.7198 24.6304 38.6906 24.6499 38.6582 24.6626C38.6258 24.6753 38.591 24.6809 38.5563 24.679C38.5215 24.6771 38.4876 24.6678 38.4568 24.6516C38.426 24.6355 38.399 24.6129 38.3778 24.5854L37.6305 23.6203C37.6093 23.5928 37.5942 23.5611 37.5863 23.5273C37.5785 23.4935 37.578 23.4584 37.585 23.4244Z" fill="#058B94"/>
<path d="M40.3319 25.2468C40.3048 25.225 40.2828 25.1977 40.2673 25.1666C40.2518 25.1355 40.2432 25.1015 40.2422 25.0668L40.2041 23.856C40.1724 23.6813 40.2115 23.5013 40.3128 23.3554C40.4141 23.2094 40.5694 23.1095 40.7445 23.0774C40.9197 23.0454 41.1004 23.0839 41.2471 23.1844C41.3938 23.285 41.4946 23.4394 41.5272 23.6139L41.9174 24.7654C41.9286 24.7982 41.9325 24.8331 41.9289 24.8676C41.9252 24.9021 41.9142 24.9354 41.8965 24.9653C41.8788 24.9952 41.8549 25.0209 41.8263 25.0407C41.7978 25.0605 41.7653 25.074 41.731 25.0801L40.5273 25.2967C40.493 25.3029 40.4578 25.3017 40.4241 25.2931C40.3904 25.2844 40.3589 25.2687 40.3319 25.2468Z" fill="#6C63FF"/>
<path d="M40.1586 20.3062C39.8188 20.538 39.3727 20.7762 39.0257 20.5294C38.7979 20.3673 38.7261 20.0673 38.8185 19.8039C38.9846 19.3304 39.4412 19.1219 39.8777 18.9621C40.4452 18.7543 41.0631 18.5891 41.649 18.7378C42.2348 18.8866 42.7526 19.4519 42.6469 20.0452C42.5618 20.5223 42.1103 20.9192 42.1744 21.3996C42.2389 21.883 42.7844 22.1374 43.2659 22.2238C43.7475 22.3102 44.2864 22.338 44.6325 22.6827C45.074 23.1225 44.9637 23.9086 44.5483 24.3729C44.1329 24.8372 43.506 25.0477 42.8985 25.1907C42.0936 25.3803 41.2231 25.4799 40.4587 25.1653C39.6943 24.8507 39.0994 24.0038 39.3208 23.2096C39.4144 22.8742 39.6347 22.5907 39.8477 22.3147C40.0606 22.0387 40.2763 21.7501 40.3575 21.4115C40.4252 21.1293 40.3751 20.8017 40.1873 20.59C40.1532 20.5529 40.1317 20.5061 40.1259 20.4561C40.1202 20.4061 40.1305 20.3556 40.1553 20.3118L40.1586 20.3062Z" fill="#2F2E41"/>
</svg>
