<svg width="20" height="20" viewBox="0 0 20 20" fill="none" xmlns="http://www.w3.org/2000/svg">
<path d="M1.24704 13.7018L1.24713 13.702C1.7478 14.863 2.42509 15.868 3.27855 16.7214C4.13202 17.5749 5.13697 18.2522 6.29799 18.7529L6.2982 18.753C7.44955 19.2501 8.68179 19.5 10 19.5C11.3182 19.5 12.5505 19.2501 13.7018 18.753L13.702 18.7529C14.863 18.2522 15.868 17.5749 16.7214 16.7214C17.5749 15.868 18.2522 14.863 18.7529 13.702L18.753 13.7018C19.2501 12.5505 19.5 11.3182 19.5 10C19.5 8.68179 19.2501 7.44955 18.753 6.2982L18.7529 6.29799C18.2522 5.13697 17.5749 4.13202 16.7214 3.27855C15.868 2.4251 14.863 1.74747 13.702 1.24613L1.24704 13.7018ZM1.24704 13.7018C0.74991 12.5505 0.5 11.3182 0.5 10C0.5 8.68179 0.74991 7.44955 1.24704 6.2982L1.24713 6.29799M1.24704 13.7018L1.24713 6.29799M1.24713 6.29799C1.7478 5.13697 2.42509 4.13202 3.27855 3.27855M1.24713 6.29799L3.27855 3.27855M3.27855 3.27855C4.13201 2.4251 5.13697 1.74747 6.29799 1.24613L3.27855 3.27855ZM7.20711 9.5H12.7929L10 12.2929L7.20711 9.5ZM6.2982 1.24604C7.44953 0.749581 8.68178 0.5 10 0.5C11.3182 0.5 12.5505 0.749581 13.7018 1.24604H6.2982ZM10 18.5C12.3631 18.5 14.3828 17.6743 16.0286 16.0286C17.6743 14.3828 18.5 12.3631 18.5 10C18.5 7.63686 17.6743 5.61718 16.0286 3.97145C14.3828 2.32572 12.3631 1.5 10 1.5C7.63686 1.5 5.61718 2.32571 3.97145 3.97145C2.32571 5.61718 1.5 7.63686 1.5 10C1.5 12.3631 2.32572 14.3828 3.97145 16.0286C5.61718 17.6743 7.63686 18.5 10 18.5Z" fill="#058B94" stroke="#058B94"/>
</svg>
