<svg width="18" height="18" viewBox="0 0 18 18" fill="none" xmlns="http://www.w3.org/2000/svg">
<path d="M9.00033 10.667C9.16514 10.667 9.32626 10.6181 9.4633 10.5266C9.60034 10.435 9.70715 10.3048 9.77022 10.1526C9.8333 10.0003 9.8498 9.83273 9.81765 9.67108C9.78549 9.50943 9.70612 9.36095 9.58958 9.2444C9.47304 9.12786 9.32455 9.04849 9.1629 9.01634C9.00125 8.98418 8.83369 9.00069 8.68142 9.06376C8.52915 9.12683 8.399 9.23364 8.30743 9.37068C8.21587 9.50772 8.16699 9.66884 8.16699 9.83366C8.16699 10.0547 8.25479 10.2666 8.41107 10.4229C8.56735 10.5792 8.77931 10.667 9.00033 10.667ZM13.167 10.667C13.3318 10.667 13.4929 10.6181 13.63 10.5266C13.767 10.435 13.8738 10.3048 13.9369 10.1526C14 10.0003 14.0165 9.83273 13.9843 9.67108C13.9522 9.50943 13.8728 9.36095 13.7562 9.2444C13.6397 9.12786 13.4912 9.04849 13.3296 9.01634C13.1679 8.98418 13.0004 9.00069 12.8481 9.06376C12.6958 9.12683 12.5657 9.23364 12.4741 9.37068C12.3825 9.50772 12.3337 9.66884 12.3337 9.83366C12.3337 10.0547 12.4215 10.2666 12.5777 10.4229C12.734 10.5792 12.946 10.667 13.167 10.667ZM9.00033 14.0003C9.16514 14.0003 9.32626 13.9515 9.4633 13.8599C9.60034 13.7683 9.70715 13.6382 9.77022 13.4859C9.8333 13.3336 9.8498 13.1661 9.81765 13.0044C9.78549 12.8428 9.70612 12.6943 9.58958 12.5777C9.47304 12.4612 9.32455 12.3818 9.1629 12.3497C9.00125 12.3175 8.83369 12.334 8.68142 12.3971C8.52915 12.4602 8.399 12.567 8.30743 12.704C8.21587 12.8411 8.16699 13.0022 8.16699 13.167C8.16699 13.388 8.25479 13.6 8.41107 13.7562C8.56735 13.9125 8.77931 14.0003 9.00033 14.0003ZM13.167 14.0003C13.3318 14.0003 13.4929 13.9515 13.63 13.8599C13.767 13.7683 13.8738 13.6382 13.9369 13.4859C14 13.3336 14.0165 13.1661 13.9843 13.0044C13.9522 12.8428 13.8728 12.6943 13.7562 12.5777C13.6397 12.4612 13.4912 12.3818 13.3296 12.3497C13.1679 12.3175 13.0004 12.334 12.8481 12.3971C12.6958 12.4602 12.5657 12.567 12.4741 12.704C12.3825 12.8411 12.3337 13.0022 12.3337 13.167C12.3337 13.388 12.4215 13.6 12.5777 13.7562C12.734 13.9125 12.946 14.0003 13.167 14.0003ZM4.83366 10.667C4.99848 10.667 5.15959 10.6181 5.29663 10.5266C5.43367 10.435 5.54049 10.3048 5.60356 10.1526C5.66663 10.0003 5.68313 9.83273 5.65098 9.67108C5.61883 9.50943 5.53946 9.36095 5.42291 9.2444C5.30637 9.12786 5.15788 9.04849 4.99623 9.01634C4.83458 8.98418 4.66703 9.00069 4.51476 9.06376C4.36248 9.12683 4.23234 9.23364 4.14077 9.37068C4.0492 9.50772 4.00033 9.66884 4.00033 9.83366C4.00033 10.0547 4.08812 10.2666 4.2444 10.4229C4.40068 10.5792 4.61264 10.667 4.83366 10.667ZM14.8337 2.33366H14.0003V1.50033C14.0003 1.27931 13.9125 1.06735 13.7562 0.91107C13.6 0.75479 13.388 0.666992 13.167 0.666992C12.946 0.666992 12.734 0.75479 12.5777 0.91107C12.4215 1.06735 12.3337 1.27931 12.3337 1.50033V2.33366H5.66699V1.50033C5.66699 1.27931 5.57919 1.06735 5.42291 0.91107C5.26663 0.75479 5.05467 0.666992 4.83366 0.666992C4.61264 0.666992 4.40068 0.75479 4.2444 0.91107C4.08812 1.06735 4.00033 1.27931 4.00033 1.50033V2.33366H3.16699C2.50395 2.33366 1.86807 2.59705 1.39923 3.06589C0.930384 3.53473 0.666992 4.17062 0.666992 4.83366V14.8337C0.666992 15.4967 0.930384 16.1326 1.39923 16.6014C1.86807 17.0703 2.50395 17.3337 3.16699 17.3337H14.8337C15.4967 17.3337 16.1326 17.0703 16.6014 16.6014C17.0703 16.1326 17.3337 15.4967 17.3337 14.8337V4.83366C17.3337 4.17062 17.0703 3.53473 16.6014 3.06589C16.1326 2.59705 15.4967 2.33366 14.8337 2.33366ZM15.667 14.8337C15.667 15.0547 15.5792 15.2666 15.4229 15.4229C15.2666 15.5792 15.0547 15.667 14.8337 15.667H3.16699C2.94598 15.667 2.73402 15.5792 2.57774 15.4229C2.42146 15.2666 2.33366 15.0547 2.33366 14.8337V7.33366H15.667V14.8337ZM15.667 5.66699H2.33366V4.83366C2.33366 4.61264 2.42146 4.40068 2.57774 4.2444C2.73402 4.08812 2.94598 4.00033 3.16699 4.00033H14.8337C15.0547 4.00033 15.2666 4.08812 15.4229 4.2444C15.5792 4.40068 15.667 4.61264 15.667 4.83366V5.66699ZM4.83366 14.0003C4.99848 14.0003 5.15959 13.9515 5.29663 13.8599C5.43367 13.7683 5.54049 13.6382 5.60356 13.4859C5.66663 13.3336 5.68313 13.1661 5.65098 13.0044C5.61883 12.8428 5.53946 12.6943 5.42291 12.5777C5.30637 12.4612 5.15788 12.3818 4.99623 12.3497C4.83458 12.3175 4.66703 12.334 4.51476 12.3971C4.36248 12.4602 4.23234 12.567 4.14077 12.704C4.0492 12.8411 4.00033 13.0022 4.00033 13.167C4.00033 13.388 4.08812 13.6 4.2444 13.7562C4.40068 13.9125 4.61264 14.0003 4.83366 14.0003Z" fill="#058b94"/>
</svg>
