<svg width="49" height="50" viewBox="0 0 49 50" fill="none" xmlns="http://www.w3.org/2000/svg">
<path d="M47.7457 20.3846C48.0481 22.0322 48.2128 23.7547 48.2128 25.5522C48.2128 39.6121 38.9596 49.6096 24.984 49.6096C21.8058 49.6106 18.6585 48.9747 15.722 47.7383C12.7855 46.5019 10.1173 44.6892 7.86999 42.4037C5.62263 40.1183 3.84012 37.4049 2.62431 34.4187C1.4085 31.4324 0.783212 28.2318 0.784181 24.9997C0.783212 21.7675 1.4085 18.5669 2.62431 15.5806C3.84012 12.5944 5.62263 9.881 7.86999 7.59555C10.1173 5.31011 12.7855 3.49739 15.722 2.26097C18.6585 1.02455 21.8058 0.388664 24.984 0.38965C31.5183 0.38965 36.9782 2.83465 41.1672 6.80465L34.3453 13.7421V13.7246C31.8059 11.2646 28.583 10.0021 24.984 10.0021C16.9993 10.0021 10.5093 16.8622 10.5093 24.9847C10.5093 33.1047 16.9993 39.9797 24.984 39.9797C32.2287 39.9797 37.1601 35.7672 38.173 29.9822H24.984V20.3846H47.7482H47.7457Z" fill="#333333"/>
</svg>
