<svg width="11" height="19" viewBox="0 0 11 19" fill="none" xmlns="http://www.w3.org/2000/svg">
<path d="M0.365445 18.2598C0.835469 18.7298 1.59326 18.7298 2.06329 18.2598L10.0345 10.2886C10.1234 10.1998 10.194 10.0944 10.2421 9.97837C10.2903 9.86233 10.315 9.73793 10.315 9.6123C10.315 9.48668 10.2903 9.36228 10.2421 9.24624C10.194 9.1302 10.1234 9.02479 10.0345 8.93605L2.06329 0.964823C1.59326 0.494799 0.835469 0.494799 0.365445 0.964823C-0.104579 1.43485 -0.104579 2.19264 0.365445 2.66266L7.31029 9.6171L0.355853 16.5715C-0.104579 17.032 -0.104579 17.7994 0.365445 18.2598Z" fill="#058B94"/>
</svg>
