<svg width="11" height="19" viewBox="0 0 11 19" fill="none" xmlns="http://www.w3.org/2000/svg">
<path d="M10.6346 18.2598C10.1645 18.7298 9.40674 18.7298 8.93671 18.2598L0.96549 10.2886C0.876566 10.1998 0.806017 10.0944 0.757881 9.97837C0.709745 9.86233 0.684968 9.73793 0.684968 9.6123C0.684968 9.48668 0.709745 9.36228 0.757881 9.24624C0.806017 9.1302 0.876566 9.02479 0.96549 8.93605L8.93671 0.964823C9.40674 0.494799 10.1645 0.494799 10.6346 0.964823C11.1046 1.43485 11.1046 2.19264 10.6346 2.66266L3.68971 9.6171L10.6441 16.5715C11.1046 17.032 11.1046 17.7994 10.6346 18.2598Z" fill="#058B94"/>
</svg>
