<svg width="18" height="18" viewBox="0 0 18 18" fill="none" xmlns="http://www.w3.org/2000/svg">
<path d="M8.99935 10.667C9.16417 10.667 9.32528 10.6181 9.46232 10.5266C9.59937 10.435 9.70618 10.3048 9.76925 10.1526C9.83232 10.0003 9.84882 9.83273 9.81667 9.67108C9.78452 9.50943 9.70515 9.36095 9.5886 9.2444C9.47206 9.12786 9.32358 9.04849 9.16192 9.01634C9.00027 8.98418 8.83272 9.00069 8.68045 9.06376C8.52817 9.12683 8.39803 9.23364 8.30646 9.37068C8.21489 9.50772 8.16602 9.66884 8.16602 9.83366C8.16602 10.0547 8.25381 10.2666 8.41009 10.4229C8.56637 10.5792 8.77833 10.667 8.99935 10.667ZM13.166 10.667C13.3308 10.667 13.492 10.6181 13.629 10.5266C13.766 10.435 13.8728 10.3048 13.9359 10.1526C13.999 10.0003 14.0155 9.83273 13.9833 9.67108C13.9512 9.50943 13.8718 9.36095 13.7553 9.2444C13.6387 9.12786 13.4902 9.04849 13.3286 9.01634C13.1669 8.98418 12.9994 9.00069 12.8471 9.06376C12.6948 9.12683 12.5647 9.23364 12.4731 9.37068C12.3816 9.50772 12.3327 9.66884 12.3327 9.83366C12.3327 10.0547 12.4205 10.2666 12.5768 10.4229C12.733 10.5792 12.945 10.667 13.166 10.667ZM8.99935 14.0003C9.16417 14.0003 9.32528 13.9515 9.46232 13.8599C9.59937 13.7683 9.70618 13.6382 9.76925 13.4859C9.83232 13.3336 9.84882 13.1661 9.81667 13.0044C9.78452 12.8428 9.70515 12.6943 9.5886 12.5777C9.47206 12.4612 9.32358 12.3818 9.16192 12.3497C9.00027 12.3175 8.83272 12.334 8.68045 12.3971C8.52817 12.4602 8.39803 12.567 8.30646 12.704C8.21489 12.8411 8.16602 13.0022 8.16602 13.167C8.16602 13.388 8.25381 13.6 8.41009 13.7562C8.56637 13.9125 8.77833 14.0003 8.99935 14.0003ZM13.166 14.0003C13.3308 14.0003 13.492 13.9515 13.629 13.8599C13.766 13.7683 13.8728 13.6382 13.9359 13.4859C13.999 13.3336 14.0155 13.1661 13.9833 13.0044C13.9512 12.8428 13.8718 12.6943 13.7553 12.5777C13.6387 12.4612 13.4902 12.3818 13.3286 12.3497C13.1669 12.3175 12.9994 12.334 12.8471 12.3971C12.6948 12.4602 12.5647 12.567 12.4731 12.704C12.3816 12.8411 12.3327 13.0022 12.3327 13.167C12.3327 13.388 12.4205 13.6 12.5768 13.7562C12.733 13.9125 12.945 14.0003 13.166 14.0003ZM4.83268 10.667C4.9975 10.667 5.15862 10.6181 5.29566 10.5266C5.4327 10.435 5.53951 10.3048 5.60258 10.1526C5.66565 10.0003 5.68216 9.83273 5.65 9.67108C5.61785 9.50943 5.53848 9.36095 5.42194 9.2444C5.30539 9.12786 5.15691 9.04849 4.99526 9.01634C4.83361 8.98418 4.66605 9.00069 4.51378 9.06376C4.36151 9.12683 4.23136 9.23364 4.13979 9.37068C4.04822 9.50772 3.99935 9.66884 3.99935 9.83366C3.99935 10.0547 4.08715 10.2666 4.24343 10.4229C4.39971 10.5792 4.61167 10.667 4.83268 10.667ZM14.8327 2.33366H13.9993V1.50033C13.9993 1.27931 13.9116 1.06735 13.7553 0.91107C13.599 0.75479 13.387 0.666992 13.166 0.666992C12.945 0.666992 12.733 0.75479 12.5768 0.91107C12.4205 1.06735 12.3327 1.27931 12.3327 1.50033V2.33366H5.66602V1.50033C5.66602 1.27931 5.57822 1.06735 5.42194 0.91107C5.26566 0.75479 5.0537 0.666992 4.83268 0.666992C4.61167 0.666992 4.39971 0.75479 4.24343 0.91107C4.08715 1.06735 3.99935 1.27931 3.99935 1.50033V2.33366H3.16602C2.50297 2.33366 1.86709 2.59705 1.39825 3.06589C0.929408 3.53473 0.666016 4.17062 0.666016 4.83366V14.8337C0.666016 15.4967 0.929408 16.1326 1.39825 16.6014C1.86709 17.0703 2.50297 17.3337 3.16602 17.3337H14.8327C15.4957 17.3337 16.1316 17.0703 16.6004 16.6014C17.0693 16.1326 17.3327 15.4967 17.3327 14.8337V4.83366C17.3327 4.17062 17.0693 3.53473 16.6004 3.06589C16.1316 2.59705 15.4957 2.33366 14.8327 2.33366ZM15.666 14.8337C15.666 15.0547 15.5782 15.2666 15.4219 15.4229C15.2657 15.5792 15.0537 15.667 14.8327 15.667H3.16602C2.945 15.667 2.73304 15.5792 2.57676 15.4229C2.42048 15.2666 2.33268 15.0547 2.33268 14.8337V7.33366H15.666V14.8337ZM15.666 5.66699H2.33268V4.83366C2.33268 4.61264 2.42048 4.40068 2.57676 4.2444C2.73304 4.08812 2.945 4.00033 3.16602 4.00033H14.8327C15.0537 4.00033 15.2657 4.08812 15.4219 4.2444C15.5782 4.40068 15.666 4.61264 15.666 4.83366V5.66699ZM4.83268 14.0003C4.9975 14.0003 5.15862 13.9515 5.29566 13.8599C5.4327 13.7683 5.53951 13.6382 5.60258 13.4859C5.66565 13.3336 5.68216 13.1661 5.65 13.0044C5.61785 12.8428 5.53848 12.6943 5.42194 12.5777C5.30539 12.4612 5.15691 12.3818 4.99526 12.3497C4.83361 12.3175 4.66605 12.334 4.51378 12.3971C4.36151 12.4602 4.23136 12.567 4.13979 12.704C4.04822 12.8411 3.99935 13.0022 3.99935 13.167C3.99935 13.388 4.08715 13.6 4.24343 13.7562C4.39971 13.9125 4.61167 14.0003 4.83268 14.0003Z" fill="#058b94"/>
</svg>
