<svg width="33" height="36" viewBox="0 0 33 36" fill="none" xmlns="http://www.w3.org/2000/svg">
<path d="M16.9738 21.6088H11.3935C10.8955 21.6088 10.4778 21.4419 10.1403 21.108C9.80403 20.7752 9.63589 20.3624 9.63589 19.8697C9.63589 19.3769 9.80403 18.9636 10.1403 18.6297C10.4778 18.2969 10.8955 18.1306 11.3935 18.1306H16.9738L15.392 16.5653C15.0404 16.2465 14.8723 15.8477 14.8875 15.3688C14.9016 14.8911 15.0844 14.4784 15.4359 14.1306C15.7581 13.8117 16.1682 13.6523 16.6662 13.6523C17.1642 13.6523 17.5743 13.8117 17.8965 14.1306L22.4662 18.6523C22.7884 18.9711 22.9495 19.3769 22.9495 19.8697C22.9495 20.3624 22.7884 20.7682 22.4662 21.0871L17.8965 25.6088C17.5743 25.9277 17.1642 26.0871 16.6662 26.0871C16.1682 26.0871 15.7581 25.9277 15.4359 25.6088C15.1137 25.29 14.9526 24.8917 14.9526 24.414C14.9526 23.9352 15.1137 23.5219 15.4359 23.174L16.9738 21.6088ZM28.9692 32.0436H4.36316V7.69578H28.9692V32.0436ZM28.9692 7.69578V32.0436V7.69578ZM28.9692 35.5219C29.9359 35.5219 30.7637 35.1816 31.4527 34.501C32.1405 33.8193 32.4844 33.0001 32.4844 32.0436V7.69578C32.4844 6.73926 32.1405 5.92013 31.4527 5.23839C30.7637 4.55781 29.9359 4.21752 28.9692 4.21752H21.5874C21.2066 3.17404 20.5692 2.33346 19.6752 1.69578C18.7823 1.0581 17.7793 0.739258 16.6662 0.739258C15.5531 0.739258 14.5495 1.0581 13.6555 1.69578C12.7626 2.33346 12.1258 3.17404 11.745 4.21752H4.36316C3.3965 4.21752 2.56868 4.55781 1.87971 5.23839C1.19191 5.92013 0.848011 6.73926 0.848011 7.69578V32.0436C0.848011 33.0001 1.19191 33.8193 1.87971 34.501C2.56868 35.1816 3.3965 35.5219 4.36316 35.5219H28.9692ZM16.6662 6.39143C16.2854 6.39143 15.9702 6.26795 15.7206 6.021C15.4722 5.7752 15.348 5.4639 15.348 5.08708C15.348 4.71027 15.4722 4.39839 15.7206 4.15143C15.9702 3.90563 16.2854 3.78274 16.6662 3.78274C17.047 3.78274 17.3616 3.90563 17.61 4.15143C17.8596 4.39839 17.9844 4.71027 17.9844 5.08708C17.9844 5.4639 17.8596 5.7752 17.61 6.021C17.3616 6.26795 17.047 6.39143 16.6662 6.39143Z" fill="#058B94"/>
</svg>
