<svg width="22" height="20" viewBox="0 0 22 20" fill="none" xmlns="http://www.w3.org/2000/svg">
<path d="M8 9C10.2091 9 12 7.20914 12 5C12 2.79086 10.2091 1 8 1C5.79086 1 4 2.79086 4 5C4 7.20914 5.79086 9 8 9Z" stroke="#808080" stroke-width="2" stroke-linecap="round" stroke-linejoin="round"/>
<path d="M1 19V15C1 13.8954 1.89543 13 3 13H13C14.1046 13 15 13.8954 15 15V19" stroke="#808080" stroke-width="2" stroke-linecap="round" stroke-linejoin="round"/>
<path d="M15 1C15.8604 1.2203 16.623 1.7207 17.1676 2.42231C17.7122 3.12392 18.0078 3.98683 18.0078 4.875C18.0078 5.76317 17.7122 6.62608 17.1676 7.32769C16.623 8.0293 15.8604 8.5297 15 8.75" stroke="#808080" stroke-width="2" stroke-linecap="round" stroke-linejoin="round"/>
<path d="M18 13H19C20.1046 13 21 13.8954 21 15V19" stroke="#808080" stroke-width="2" stroke-linecap="round" stroke-linejoin="round"/>
</svg>
