<svg width="20" height="20" viewBox="0 0 20 20" fill="none" xmlns="http://www.w3.org/2000/svg">
<path d="M9 1H2C1.44772 1 1 1.44772 1 2V9C1 9.55229 1.44772 10 2 10H9C9.55229 10 10 9.55229 10 9V2C10 1.44772 9.55229 1 9 1Z" stroke="#808080" stroke-width="2" stroke-linecap="round" stroke-linejoin="round"/>
<path d="M18.5 14H14.5C14.2239 14 14 14.2239 14 14.5V18.5C14 18.7761 14.2239 19 14.5 19H18.5C18.7761 19 19 18.7761 19 18.5V14.5C19 14.2239 18.7761 14 18.5 14Z" stroke="#808080" stroke-width="2" stroke-linecap="round" stroke-linejoin="round"/>
<path d="M18.5 5H14.5C14.2239 5 14 5.22386 14 5.5V9.5C14 9.77614 14.2239 10 14.5 10H18.5C18.7761 10 19 9.77614 19 9.5V5.5C19 5.22386 18.7761 5 18.5 5Z" stroke="#808080" stroke-width="2" stroke-linecap="round" stroke-linejoin="round"/>
<path d="M9.5 14H5.5C5.22386 14 5 14.2239 5 14.5V18.5C5 18.7761 5.22386 19 5.5 19H9.5C9.77614 19 10 18.7761 10 18.5V14.5C10 14.2239 9.77614 14 9.5 14Z" stroke="#808080" stroke-width="2" stroke-linecap="round" stroke-linejoin="round"/>
</svg>
