<svg width="24" height="24" viewBox="0 0 24 24" fill="none" xmlns="http://www.w3.org/2000/svg">
<path d="M8.99976 11.9998L10.9998 13.9998L14.9998 9.99975M7.94611 4.24947L6.2517 4.23679C5.13545 4.22843 4.22843 5.13545 4.23679 6.2517L4.24947 7.94611C4.25352 8.48691 4.03838 9.0063 3.65311 9.38584L2.44602 10.5751C1.6508 11.3585 1.6508 12.6412 2.44602 13.4246L3.65311 14.6137C4.03838 14.9933 4.25352 15.5127 4.24947 16.0535L4.23679 17.7479C4.22843 18.8641 5.13545 19.7711 6.2517 19.7628L7.94611 19.7501C8.48691 19.7461 9.0063 19.9612 9.38584 20.3465L10.5751 21.5536C11.3585 22.3488 12.6412 22.3488 13.4246 21.5536L14.6137 20.3465C14.9933 19.9612 15.5127 19.7461 16.0535 19.7501L17.7479 19.7628C18.8641 19.7711 19.7711 18.8641 19.7628 17.7479L19.7501 16.0535C19.7461 15.5127 19.9612 14.9933 20.3465 14.6137L21.5536 13.4246C22.3488 12.6412 22.3488 11.3585 21.5536 10.5751L20.3465 9.38584C19.9612 9.0063 19.7461 8.48691 19.7501 7.94611L19.7628 6.2517C19.7711 5.13545 18.8641 4.22843 17.7479 4.23679L16.0535 4.24947C15.5127 4.25352 14.9933 4.03838 14.6137 3.65311L13.4246 2.44602C12.6412 1.6508 11.3584 1.6508 10.5751 2.44602L9.38584 3.65311C9.0063 4.03838 8.48691 4.25352 7.94611 4.24947Z" stroke="#808080" stroke-width="2" stroke-linecap="round" stroke-linejoin="round"/>
</svg>
