<svg width="49" height="50" viewBox="0 0 49 50" fill="none" xmlns="http://www.w3.org/2000/svg">
<path d="M47.7467 20.3846C48.0491 22.0322 48.2138 23.7547 48.2138 25.5522C48.2138 39.6121 38.9606 49.6096 24.985 49.6096C21.8067 49.6106 18.6595 48.9747 15.723 47.7383C12.7865 46.5019 10.1183 44.6892 7.87096 42.4037C5.62361 40.1183 3.8411 37.4049 2.62529 34.4187C1.40947 31.4324 0.784188 28.2318 0.785157 24.9997C0.784188 21.7675 1.40947 18.5669 2.62529 15.5806C3.8411 12.5944 5.62361 9.881 7.87096 7.59555C10.1183 5.31011 12.7865 3.49739 15.723 2.26097C18.6595 1.02455 21.8067 0.388664 24.985 0.38965C31.5192 0.38965 36.9792 2.83465 41.1682 6.80465L34.3463 13.7421V13.7246C31.8069 11.2646 28.584 10.0021 24.985 10.0021C17.0003 10.0021 10.5103 16.8622 10.5103 24.9847C10.5103 33.1047 17.0003 39.9797 24.985 39.9797C32.2297 39.9797 37.1611 35.7672 38.1739 29.9822H24.985V20.3846H47.7492H47.7467Z" fill="#333333"/>
</svg>
