<svg width="19" height="21" viewBox="0 0 19 21" fill="none" xmlns="http://www.w3.org/2000/svg">
<path d="M9.29659 12.0657H8.11312L8.93809 12.9142L9.84534 13.8474C9.94781 13.9611 9.99659 14.0868 9.99659 14.2488C9.99659 14.4116 9.94761 14.5206 9.85608 14.6121C9.7677 14.7005 9.65578 14.7526 9.47919 14.7526C9.3026 14.7526 9.19069 14.7005 9.10231 14.6121L6.38927 11.8991C6.3009 11.8107 6.24876 11.6988 6.24876 11.5222C6.24876 11.3456 6.3009 11.2337 6.38927 11.1453L9.10231 8.43228C9.19069 8.34391 9.3026 8.29177 9.47919 8.29177C9.65578 8.29177 9.7677 8.34391 9.85608 8.43228C9.9775 8.5537 10.0309 8.68124 10.0354 8.83624L10.0354 8.83741C10.04 8.98172 9.99731 9.07985 9.89785 9.17102L9.88985 9.17836L9.88216 9.18604L8.94303 10.1252L8.08948 10.9787H9.29659H12.6096C12.7793 10.9787 12.8982 11.0305 13.0001 11.1318C13.1013 11.2336 13.1531 11.3525 13.1531 11.5222C13.1531 11.6922 13.1012 11.8105 13.0001 11.9116C12.8979 12.0137 12.7791 12.0657 12.6096 12.0657H9.29659ZM1.67485 18.8266V19.3266H2.17485H16.7835H17.2835V18.8266V4.21786V3.71786H16.7835H10.212C10.276 3.6742 10.3369 3.62381 10.3941 3.56654C10.6437 3.31695 10.7618 2.99905 10.7618 2.65264C10.7618 2.30623 10.6438 1.9885 10.395 1.73853L10.3933 1.73687C10.1433 1.48807 9.8256 1.37003 9.47919 1.37003C9.13279 1.37003 8.81489 1.4881 8.56529 1.7377C8.31548 1.98751 8.19659 2.30551 8.19659 2.65264C8.19659 2.999 8.31499 3.31653 8.56446 3.56571C8.62182 3.62334 8.68281 3.674 8.74695 3.71786H2.17485H1.67485V4.21786V18.8266ZM6.55746 2.6309H6.9085L7.02773 2.30072C7.22025 1.7676 7.53754 1.34611 7.98514 1.02346L7.98539 1.02328C8.4293 0.702875 8.92215 0.543945 9.47919 0.543945C10.0361 0.543945 10.5294 0.702823 10.974 1.02328C11.421 1.34588 11.7381 1.76742 11.9307 2.30072L12.0499 2.6309H12.4009H16.7835C17.2237 2.6309 17.5883 2.7816 17.9042 3.09675C18.2197 3.41278 18.3705 3.77749 18.3705 4.21786V18.8266C18.3705 19.2668 18.2197 19.6315 17.9044 19.9474C17.5884 20.2627 17.2238 20.4135 16.7835 20.4135H2.17485C1.73448 20.4135 1.36977 20.2627 1.05374 19.9472C0.738589 19.6313 0.587891 19.2667 0.587891 18.8266V4.21786C0.587891 3.7776 0.738661 3.41296 1.05397 3.09698C1.36994 2.78167 1.73459 2.6309 2.17485 2.6309H6.55746Z" fill="#808080" stroke="#808080"/>
</svg>
