<svg width="42" height="27" viewBox="0 0 42 27" fill="none" xmlns="http://www.w3.org/2000/svg">
<path d="M38.3202 25.5139C38.5225 23.8964 39.5303 22.3027 41.0812 21.7764C40.4696 23.4412 40.4697 25.2675 41.0816 26.9323C41.3199 27.5734 41.6521 28.2619 41.4279 28.9081C41.2885 29.3102 40.9473 29.6178 40.5659 29.8102C40.1844 30.0025 39.7611 30.0942 39.3431 30.184L39.2609 30.2517C38.5973 28.7614 38.118 27.1313 38.3202 25.5139Z" fill="#035D63"/>
<path d="M41.0954 21.8071C40.1922 22.8136 39.6309 24.0776 39.4911 25.4195C39.4558 25.7079 39.4665 26 39.5227 26.285C39.5864 26.5609 39.7233 26.8148 39.9191 27.0204C40.0978 27.2156 40.3033 27.3948 40.4311 27.6298C40.4948 27.7511 40.5319 27.8844 40.5402 28.021C40.5484 28.1575 40.5275 28.2943 40.4788 28.4223C40.3659 28.7443 40.1435 29.0067 39.9169 29.2559C39.6654 29.5325 39.3998 29.8159 39.2929 30.1826C39.2799 30.2271 39.2113 30.2045 39.2243 30.1601C39.4103 29.522 40.033 29.1596 40.33 28.5849C40.4686 28.3168 40.5268 28.0054 40.3968 27.7224C40.2832 27.4748 40.0715 27.2899 39.8888 27.0938C39.6949 26.8961 39.5526 26.6542 39.4743 26.3891C39.4037 26.1079 39.3817 25.8167 39.4093 25.5281C39.4611 24.8773 39.6154 24.2387 39.8666 23.6356C40.1495 22.9458 40.5489 22.3091 41.0476 21.7532C41.0785 21.7188 41.1261 21.7729 41.0954 21.8071H41.0954Z" fill="white"/>
<path d="M39.5113 24.985C39.2881 24.9311 39.0915 24.8001 38.9564 24.6153C38.8214 24.4305 38.7569 24.204 38.7743 23.9762C38.7779 23.9301 38.8501 23.9336 38.8464 23.9798C38.8298 24.1919 38.89 24.4028 39.0161 24.5747C39.1421 24.7465 39.3258 24.8678 39.5339 24.9168C39.5791 24.9275 39.5562 24.9956 39.5113 24.985V24.985Z" fill="white"/>
<path d="M39.817 26.9329C40.2201 26.6935 40.5177 26.3118 40.6504 25.8639C40.6635 25.8195 40.7321 25.8421 40.719 25.8864C40.58 26.3523 40.2695 26.7489 39.8495 26.9971C39.8095 27.0207 39.7772 26.9564 39.817 26.9329V26.9329Z" fill="white"/>
<path d="M40.2171 23.014C40.299 23.0527 40.3894 23.0706 40.4801 23.066C40.5707 23.0615 40.6588 23.0346 40.7364 22.9877C40.7762 22.9636 40.8084 23.0279 40.7689 23.0519C40.6829 23.1032 40.5856 23.1328 40.4855 23.1381C40.3853 23.1434 40.2854 23.1242 40.1944 23.0822C40.1855 23.0789 40.1782 23.0724 40.1739 23.064C40.1696 23.0556 40.1688 23.0459 40.1714 23.0368C40.1745 23.0278 40.181 23.0203 40.1895 23.0161C40.1981 23.0118 40.208 23.011 40.2171 23.014V23.014Z" fill="white"/>
<path d="M45.808 24.6651C45.7836 24.6809 45.7592 24.6967 45.7348 24.713C45.4082 24.9267 45.0996 25.1663 44.812 25.4297C44.7894 25.4497 44.7668 25.4703 44.7449 25.4909C44.0588 26.1327 43.4985 26.8956 43.0924 27.7408C42.9311 28.0773 42.7958 28.4255 42.6876 28.7824C42.5382 29.2754 42.4157 29.8216 42.1201 30.2248C42.0897 30.2672 42.0567 30.3077 42.0213 30.3461H39.3496C39.3435 30.343 39.3374 30.3406 39.3313 30.3376L39.2246 30.3424C39.2289 30.3236 39.2337 30.3042 39.238 30.2854C39.2405 30.2745 39.2435 30.2636 39.2459 30.2527C39.2478 30.2454 39.2496 30.2381 39.2508 30.2315C39.2514 30.229 39.2521 30.2266 39.2526 30.2248C39.2539 30.2181 39.2557 30.2121 39.2569 30.206C39.2838 30.0975 39.3114 29.989 39.3398 29.8804C39.3398 29.8798 39.3398 29.8798 39.3404 29.8792C39.5593 29.0528 39.8494 28.2374 40.2548 27.4917C40.267 27.4692 40.2792 27.4462 40.2926 27.4238C40.4772 27.0886 40.689 26.7691 40.9259 26.4682C41.0562 26.3039 41.1948 26.1463 41.3411 25.9959C41.7198 25.6082 42.1576 25.282 42.6382 25.0295C43.5965 24.5263 44.7059 24.3335 45.73 24.6409C45.7562 24.6488 45.7818 24.6567 45.808 24.6651Z" fill="#035D63"/>
<path d="M45.8013 24.6994C44.4709 24.9622 43.2575 25.6353 42.3336 26.623C42.1309 26.8321 41.9626 27.0717 41.8349 27.333C41.7188 27.5915 41.6744 27.8762 41.7063 28.1575C41.7308 28.4204 41.7864 28.6865 41.7462 28.9507C41.7236 29.0857 41.6726 29.2144 41.5965 29.3283C41.5204 29.4423 41.4209 29.539 41.3046 29.612C41.0196 29.8015 40.6831 29.8779 40.3514 29.9411C39.9831 30.0114 39.5995 30.0786 39.2921 30.3074C39.2548 30.3351 39.2138 30.276 39.251 30.2483C39.7857 29.8502 40.5023 29.9338 41.0873 29.6528C41.3603 29.5216 41.5952 29.3079 41.6628 29.0041C41.722 28.7384 41.6648 28.4639 41.6377 28.198C41.6025 27.924 41.6353 27.6456 41.7333 27.3871C41.8472 27.1203 42.0059 26.8746 42.2026 26.6607C42.6379 26.1721 43.1477 25.7546 43.7133 25.4235C44.3567 25.0421 45.0611 24.7729 45.7958 24.6277C45.8412 24.6188 45.8465 24.6905 45.8013 24.6994V24.6994Z" fill="white"/>
<path d="M29.6899 17.3475C29.7452 17.2907 29.7873 17.2226 29.8132 17.1478C29.8391 17.0731 29.8483 16.9936 29.84 16.915C29.8317 16.8364 29.8061 16.7605 29.7652 16.6928C29.7242 16.625 29.6688 16.567 29.6029 16.5229L30.0968 14.665L29.1452 14.9834L28.822 16.6988C28.7548 16.8139 28.7324 16.9495 28.7589 17.08C28.7855 17.2104 28.8593 17.3266 28.9663 17.4066C29.0733 17.4866 29.206 17.5247 29.3394 17.5138C29.4728 17.5029 29.5975 17.4438 29.6899 17.3475V17.3475Z" fill="#9E616A"/>
<path d="M30.5893 14.5054L30.3349 14.5753C30.3349 14.5753 29.6702 18.8613 29.6161 21.1199C29.562 23.3785 29.7783 29.0788 29.7783 29.0788H31.1841L32.3195 19.399L32.8602 29.0788H34.3741C34.3741 29.0788 35.4554 16.3876 34.9688 15.3658C34.4822 14.3441 30.5893 14.5054 30.5893 14.5054Z" fill="#035D63"/>
<path d="M32.6159 6.94176C33.3174 6.94176 33.8861 6.37614 33.8861 5.6784C33.8861 4.98066 33.3174 4.41504 32.6159 4.41504C31.9144 4.41504 31.3457 4.98066 31.3457 5.6784C31.3457 6.37614 31.9144 6.94176 32.6159 6.94176Z" fill="#9E616A"/>
<path d="M35.8335 8.58911L33.862 7.30762L31.819 7.38764L29.832 8.48155L30.589 12.6761L30.2646 15.096C30.2646 15.096 33.1842 14.7734 33.833 15.2574C34.212 15.5445 34.6589 15.7297 35.1307 15.7951L35.0225 11.6544L35.8335 8.58911Z" fill="#058B94"/>
<path d="M30.2098 8.4279L30.0056 8.38574L29.8314 8.48168C29.8314 8.48168 29.3447 9.12699 29.3447 9.71853C29.3447 10.3101 28.75 16.0104 28.75 16.0104L29.8314 16.4943L30.6964 12.0309L30.2098 8.4279Z" fill="#058B94"/>
<path d="M33.7289 4.75272C33.7289 4.75272 34.0611 4.12104 33.3302 4.06361C33.3302 4.06361 32.7071 3.50143 32.072 3.96084C32.072 3.96084 31.7256 3.96084 31.5362 4.35074C31.5362 4.35074 31.2637 4.24796 31.2038 4.52301C31.2038 4.52301 31.0045 5.09727 31.2038 5.6141C31.4032 6.13093 31.4694 6.18835 31.4694 6.18835C31.4694 6.18835 31.1418 5.10479 31.9392 5.04737C32.7366 4.98994 33.629 4.4943 33.6954 5.12598C33.7619 5.75766 33.8619 5.9133 33.8619 5.9133C33.8619 5.9133 34.493 5.01113 33.7289 4.75272Z" fill="#2F2E41"/>
<path d="M17.3157 12.1851H1.58203V0.461914H17.3157V12.1851Z" fill="white"/>
<path d="M16.9396 4.44827H2.33613C1.95897 4.44827 1.59726 4.29785 1.33057 4.0301C1.06389 3.76234 0.914063 3.39919 0.914062 3.02052C0.914063 2.64186 1.06389 2.27871 1.33057 2.01095C1.59726 1.7432 1.95897 1.59277 2.33613 1.59277H16.9396C17.3168 1.59277 17.6785 1.7432 17.9452 2.01095C18.2119 2.27871 18.3617 2.64186 18.3617 3.02052C18.3617 3.39919 18.2119 3.76234 17.9452 4.0301C17.6785 4.29785 17.3168 4.44827 16.9396 4.44827Z" fill="#058B94"/>
<path d="M2.33607 2.05957C2.08221 2.05957 1.83875 2.16082 1.65925 2.34104C1.47975 2.52126 1.37891 2.76569 1.37891 3.02056C1.37891 3.27543 1.47975 3.51986 1.65925 3.70008C1.83875 3.8803 2.08221 3.98154 2.33607 3.98154H16.9396C17.1934 3.98154 17.4369 3.8803 17.6164 3.70008C17.7959 3.51986 17.8967 3.27543 17.8967 3.02056C17.8967 2.76569 17.7959 2.52126 17.6164 2.34104C17.4369 2.16082 17.1934 2.05957 16.9396 2.05957H2.33607Z" fill="white"/>
<path d="M22.1019 1.68555C21.7516 1.68555 21.4157 1.82524 21.1681 2.0739C20.9204 2.32255 20.7813 2.65981 20.7813 3.01146C20.7812 3.36312 20.9204 3.70037 21.1681 3.94903C21.4157 4.19769 21.7516 4.33739 22.1019 4.33739H22.1019C22.4522 4.33739 22.7881 4.1977 23.0357 3.94904C23.2834 3.70038 23.4225 3.36313 23.4225 3.01147C23.4225 2.65981 23.2834 2.32256 23.0357 2.0739C22.7881 1.82524 22.4522 1.68555 22.1019 1.68555Z" fill="#035D63"/>
<path d="M21.9757 3.56185C21.941 3.56191 21.9071 3.55061 21.8793 3.52967L21.8776 3.52838L21.5144 3.24945C21.4976 3.2365 21.4835 3.22036 21.4729 3.20193C21.4622 3.18351 21.4553 3.16316 21.4526 3.14206C21.4498 3.12096 21.4512 3.09952 21.4566 3.07895C21.4621 3.05839 21.4716 3.03911 21.4845 3.02222C21.4974 3.00533 21.5135 2.99115 21.5318 2.9805C21.5502 2.96986 21.5704 2.96294 21.5915 2.96016C21.6125 2.95738 21.6338 2.95878 21.6543 2.96429C21.6748 2.96979 21.694 2.9793 21.7108 2.99225L21.9461 3.17337L22.5019 2.44526C22.5148 2.42838 22.5309 2.41421 22.5492 2.40357C22.5676 2.39293 22.5878 2.38602 22.6088 2.38323C22.6298 2.38045 22.6512 2.38184 22.6716 2.38734C22.6921 2.39283 22.7113 2.40232 22.7281 2.41527L22.7282 2.4153L22.7247 2.42011L22.7283 2.4153C22.7622 2.44147 22.7844 2.48009 22.79 2.52267C22.7956 2.56526 22.7841 2.60833 22.7581 2.64244L22.1043 3.49846C22.0891 3.51819 22.0697 3.53415 22.0474 3.54511C22.0252 3.55607 22.0007 3.56173 21.9759 3.56166L21.9757 3.56185Z" fill="white"/>
<path d="M16.9396 9.28031H2.33613C1.95897 9.28031 1.59726 9.12988 1.33057 8.86213C1.06389 8.59437 0.914063 8.23122 0.914062 7.85256C0.914063 7.47389 1.06389 7.11074 1.33057 6.84298C1.59726 6.57523 1.95897 6.4248 2.33613 6.4248H16.9396C17.3168 6.4248 17.6785 6.57523 17.9452 6.84298C18.2119 7.11074 18.3617 7.47389 18.3617 7.85256C18.3617 8.23122 18.2119 8.59437 17.9452 8.86213C17.6785 9.12988 17.3168 9.28031 16.9396 9.28031Z" fill="#058B94"/>
<path d="M2.33607 6.8916C2.08221 6.8916 1.83875 6.99285 1.65925 7.17307C1.47975 7.35329 1.37891 7.59772 1.37891 7.85259C1.37891 8.10746 1.47975 8.35189 1.65925 8.53211C1.83875 8.71233 2.08221 8.81357 2.33607 8.81357H16.9396C17.1934 8.81357 17.4369 8.71233 17.6164 8.53211C17.7959 8.35189 17.8967 8.10746 17.8967 7.85259C17.8967 7.59772 17.7959 7.35329 17.6164 7.17307C17.4369 6.99285 17.1934 6.8916 16.9396 6.8916H2.33607Z" fill="white"/>
<path d="M22.1019 6.51758C21.7516 6.51758 21.4157 6.65727 21.1681 6.90593C20.9204 7.15459 20.7813 7.49184 20.7813 7.8435C20.7812 8.19515 20.9204 8.53241 21.1681 8.78107C21.4157 9.02973 21.7516 9.16942 22.1019 9.16942H22.1019C22.4522 9.16942 22.7881 9.02973 23.0357 8.78107C23.2834 8.53241 23.4225 8.19516 23.4225 7.8435C23.4225 7.49185 23.2834 7.15459 23.0357 6.90593C22.7881 6.65727 22.4522 6.51758 22.1019 6.51758Z" fill="#035D63"/>
<path d="M21.9757 8.39388C21.941 8.39394 21.9071 8.38265 21.8793 8.36171L21.8776 8.36041L21.5144 8.08148C21.4976 8.06853 21.4835 8.05239 21.4729 8.03396C21.4622 8.01554 21.4553 7.99519 21.4526 7.97409C21.4498 7.95299 21.4512 7.93155 21.4566 7.91098C21.4621 7.89042 21.4716 7.87114 21.4845 7.85425C21.4974 7.83736 21.5135 7.82318 21.5318 7.81254C21.5502 7.80189 21.5704 7.79497 21.5915 7.79219C21.6125 7.78941 21.6338 7.79081 21.6543 7.79632C21.6748 7.80182 21.694 7.81133 21.7108 7.82428L21.9461 8.0054L22.5019 7.27729C22.5148 7.26041 22.5309 7.24624 22.5492 7.2356C22.5676 7.22496 22.5878 7.21805 22.6088 7.21526C22.6298 7.21248 22.6512 7.21387 22.6716 7.21937C22.6921 7.22487 22.7113 7.23436 22.7281 7.2473L22.7282 7.24733L22.7247 7.25214L22.7283 7.24733C22.7622 7.27351 22.7844 7.31212 22.79 7.3547C22.7956 7.39729 22.7841 7.44036 22.7581 7.47447L22.1043 8.3305C22.0891 8.35022 22.0697 8.36618 22.0474 8.37714C22.0252 8.3881 22.0007 8.39376 21.9759 8.39369L21.9757 8.39388Z" fill="white"/>
<path d="M16.9396 14.1133H2.33613C1.95897 14.1133 1.59726 13.9629 1.33057 13.6951C1.06389 13.4274 0.914063 13.0642 0.914062 12.6856C0.914063 12.3069 1.06389 11.9437 1.33057 11.676C1.59726 11.4082 1.95897 11.2578 2.33613 11.2578H16.9396C17.3168 11.2578 17.6785 11.4082 17.9452 11.676C18.2119 11.9437 18.3617 12.3069 18.3617 12.6856C18.3617 13.0642 18.2119 13.4274 17.9452 13.6951C17.6785 13.9629 17.3168 14.1133 16.9396 14.1133Z" fill="#058B94"/>
<path d="M2.33607 11.7246C2.08221 11.7246 1.83875 11.8259 1.65925 12.0061C1.47975 12.1863 1.37891 12.4307 1.37891 12.6856C1.37891 12.9405 1.47975 13.1849 1.65925 13.3651C1.83875 13.5453 2.08221 13.6466 2.33607 13.6466H16.9396C17.1934 13.6466 17.4369 13.5453 17.6164 13.3651C17.7959 13.1849 17.8967 12.9405 17.8967 12.6856C17.8967 12.4307 17.7959 12.1863 17.6164 12.0061C17.4369 11.8259 17.1934 11.7246 16.9396 11.7246H2.33607Z" fill="white"/>
<path d="M22.1019 11.3496C21.7516 11.3496 21.4157 11.4893 21.1681 11.738C20.9204 11.9866 20.7813 12.3239 20.7813 12.6755C20.7812 13.0272 20.9204 13.3644 21.1681 13.6131C21.4157 13.8618 21.7516 14.0015 22.1019 14.0015H22.1019C22.4522 14.0015 22.7881 13.8618 23.0357 13.6131C23.2834 13.3644 23.4225 13.0272 23.4225 12.6755C23.4225 12.3239 23.2834 11.9866 23.0357 11.738C22.7881 11.4893 22.4522 11.3496 22.1019 11.3496Z" fill="#E6E6E6"/>
<path d="M41.9711 30.4731H36.0918V26.0605H41.9711V30.4731Z" fill="white"/>
<path d="M41.9711 30.4731H36.0918V26.0605H41.9711V30.4731ZM36.1999 30.3656H41.8629V26.1681H36.1999V30.3656Z" fill="#E6E6E6"/>
<path d="M38.3993 22.556L34.0078 18.668L36.9576 15.3721L41.3491 19.2601L38.3993 22.556Z" fill="white"/>
<path d="M38.3993 22.556L34.0078 18.668L36.9576 15.3721L41.3491 19.2601L38.3993 22.556ZM34.1605 18.6592L38.3904 22.4042L41.1964 19.2689L36.9665 15.5239L34.1605 18.6592Z" fill="#E6E6E6"/>
<path d="M36.7348 16.7827L36.543 16.9971L39.776 19.8594L39.9678 19.6451L36.7348 16.7827Z" fill="#058B94"/>
<path d="M36.1587 17.4253L35.9668 17.6396L39.1998 20.502L39.3917 20.2877L36.1587 17.4253Z" fill="#058B94"/>
<path d="M35.5825 18.0688L35.3906 18.2832L38.6236 21.1456L38.8155 20.9312L35.5825 18.0688Z" fill="#058B94"/>
<path d="M35.1607 17.3076C35.122 17.2386 35.0989 17.162 35.0932 17.0831C35.0875 17.0042 35.0992 16.9251 35.1276 16.8513C35.1559 16.7774 35.2002 16.7106 35.2573 16.6556C35.3145 16.6007 35.383 16.5588 35.4581 16.533L35.4614 14.6113L36.2986 15.1625L36.1672 16.9029C36.2024 17.0313 36.189 17.1681 36.1295 17.2873C36.0701 17.4066 35.9688 17.5 35.8447 17.5499C35.7206 17.5998 35.5825 17.6027 35.4564 17.558C35.3303 17.5134 35.2251 17.4243 35.1607 17.3076V17.3076Z" fill="#9E616A"/>
<path d="M35.2378 8.80487L35.6119 8.44629L35.8867 8.64354C35.8867 8.64354 36.157 8.9662 36.3733 9.93417C36.5895 10.9021 36.3733 16.226 36.3733 16.226L35.1838 16.0647L35.346 13.2683L34.8594 10.9021L35.2378 8.80487Z" fill="#058B94"/>
</svg>
