<svg width="51" height="51" viewBox="0 0 51 51" fill="none" xmlns="http://www.w3.org/2000/svg">
<path d="M49.5485 0.472185H6.49844C6.29588 0.470823 6.10104 0.550303 5.95753 0.69336C5.81447 0.83688 5.73453 1.03172 5.73636 1.23427V27.5129C5.73636 27.9334 6.07744 28.2745 6.49845 28.2745C6.91901 28.2745 7.26009 27.9334 7.26009 27.5129V9.54966H48.7615V48.8432H7.26009V42.3322C7.26009 41.9112 6.91901 41.5701 6.49845 41.5701C6.07744 41.5701 5.73636 41.9112 5.73636 42.3322V49.5722C5.73454 49.7747 5.81448 49.9696 5.95753 50.1131C6.10105 50.2561 6.29589 50.3356 6.49844 50.3342H49.5485C49.9695 50.3342 50.3106 49.9932 50.3106 49.5721V1.23542C50.3106 1.03331 50.2302 0.839391 50.0872 0.696778C49.9445 0.553712 49.7506 0.473325 49.5485 0.473325V0.472185ZM7.25999 8.02499V1.99598H48.7614V8.02499H7.25999Z" fill="#058B94"/>
<path d="M45.0414 4.48281C44.8987 4.62133 44.8184 4.81162 44.8184 5.01055C44.8184 5.20902 44.8987 5.39932 45.0414 5.53784C45.1808 5.68635 45.3779 5.7672 45.5818 5.75902C45.7848 5.76447 45.981 5.68408 46.1223 5.53784C46.2644 5.39932 46.3448 5.20903 46.3448 5.01055C46.3448 4.81163 46.2644 4.62133 46.1223 4.48281C45.8184 4.19714 45.3447 4.19714 45.0414 4.48281Z" fill="#058B94"/>
<path d="M42.1976 4.99797C42.1976 5.41853 41.8565 5.75961 41.4359 5.75961C41.0149 5.75961 40.6738 5.41853 40.6738 4.99797C40.6738 4.57741 41.0149 4.23633 41.4359 4.23633C41.8565 4.23633 42.1976 4.57741 42.1976 4.99797Z" fill="#058B94"/>
<path d="M36.7343 4.48302C36.5917 4.62154 36.5117 4.81183 36.5117 5.01076C36.5117 5.20923 36.5917 5.39954 36.7343 5.53806C36.8732 5.68339 37.0672 5.76378 37.2684 5.75923C37.4718 5.76741 37.6689 5.68656 37.8084 5.53806C37.9501 5.39363 38.0295 5.1997 38.03 4.9976C38.0182 4.79776 37.9405 4.60747 37.8084 4.45715C37.4959 4.19146 37.0336 4.2028 36.7343 4.48302Z" fill="#058B94"/>
<path d="M16.311 20.2338C17.1449 20.2338 17.8239 19.5634 17.8347 18.73V15.702C17.8238 14.865 17.148 14.1892 16.311 14.1787H13.2836C12.4497 14.1892 11.7793 14.8681 11.7793 15.702V18.73C11.7829 19.5588 12.4542 20.23 13.2836 20.2338H16.311ZM13.2836 15.6762H16.311V18.7037H13.2836V15.6762Z" fill="#058B94"/>
<path d="M12.5391 43.4116C12.5355 43.8262 12.867 44.1664 13.2817 44.1737H16.3091C16.7142 44.1768 17.1039 44.0174 17.3905 43.7313C17.6766 43.4447 17.836 43.055 17.8329 42.6499V39.6224C17.8292 39.2219 17.6666 38.839 17.381 38.5579C17.0953 38.2772 16.7097 38.1214 16.3091 38.1251H14.8049C14.6023 38.1232 14.4075 38.2027 14.2644 38.3462C14.1213 38.4893 14.0414 38.6841 14.0432 38.8867C14.0469 39.3059 14.3857 39.6447 14.8049 39.6483H16.3091V42.6758H13.2817C12.877 42.6826 12.5495 43.0074 12.5391 43.4116Z" fill="#058B94"/>
<path d="M44.3533 14.1783H38.3437C37.9245 14.182 37.5852 14.5208 37.5821 14.94C37.5802 15.1425 37.6597 15.3374 37.8032 15.4804C37.9463 15.624 38.1411 15.7034 38.3437 15.7016H44.3727C44.5753 15.7034 44.7701 15.6239 44.9132 15.4804C45.0567 15.3374 45.1362 15.1425 45.1343 14.94C45.133 14.7352 45.0494 14.5394 44.9027 14.3963C44.756 14.2533 44.558 14.1747 44.3532 14.1783H44.3533Z" fill="#058B94"/>
<path d="M33.7858 14.1782H22.4434C22.0319 14.1918 21.7044 14.5279 21.7013 14.9399C21.6981 15.1397 21.7744 15.3323 21.9138 15.4753C22.0532 15.6184 22.244 15.7001 22.4434 15.7015H33.7858C33.9856 15.7001 34.1764 15.6184 34.3158 15.4753C34.4548 15.3323 34.5315 15.1397 34.5279 14.9399C34.5247 14.5279 34.1972 14.1918 33.7858 14.1782Z" fill="#058B94"/>
<path d="M30.7775 19.4906C30.7806 19.8966 31.1072 20.2259 31.5132 20.2327H39.8277C40.0389 20.2527 40.2491 20.1823 40.4063 20.0392C40.5634 19.8961 40.6529 19.6931 40.6529 19.4806C40.6529 19.2685 40.5634 19.0655 40.4063 18.9224C40.2491 18.7793 40.0389 18.7089 39.8277 18.7289H31.5132C31.3143 18.7321 31.1254 18.8143 30.9873 18.9574C30.8492 19.1 30.7738 19.2921 30.7775 19.4906Z" fill="#058B94"/>
<path d="M22.4427 20.2337H27.756C28.1443 20.1978 28.4408 19.8718 28.4408 19.4816C28.4408 19.0919 28.1443 18.7659 27.756 18.73H22.4427C22.0548 18.7659 21.7578 19.092 21.7578 19.4816C21.7578 19.8718 22.0548 20.1978 22.4427 20.2337Z" fill="#058B94"/>
<path d="M44.3519 26.1643H30.751C30.5394 26.1448 30.3295 26.2152 30.1724 26.3583C30.0152 26.5013 29.9258 26.7039 29.9258 26.9164C29.9258 27.129 30.0153 27.3316 30.1724 27.4746C30.3295 27.6177 30.5394 27.6881 30.751 27.6686H44.3519C44.5635 27.6881 44.7738 27.6177 44.9305 27.4746C45.0876 27.3316 45.1771 27.129 45.1771 26.9164C45.1771 26.7039 45.0876 26.5013 44.9305 26.3583C44.7738 26.2152 44.5635 26.1448 44.3519 26.1643Z" fill="#058B94"/>
<path d="M22.4427 27.669H26.2064C26.418 27.6886 26.6278 27.6182 26.785 27.4751C26.9421 27.332 27.0316 27.1295 27.0316 26.9169C27.0316 26.7044 26.9421 26.5018 26.785 26.3588C26.6278 26.2157 26.418 26.1453 26.2064 26.1648H22.4427C22.0548 26.2012 21.7578 26.5268 21.7578 26.9169C21.7578 27.3071 22.0548 27.6327 22.4427 27.669Z" fill="#058B94"/>
<path d="M38.3026 32.2127C38.7232 32.2127 39.0643 31.8717 39.0643 31.4511C39.0643 31.0305 38.7232 30.6895 38.3026 30.6895H34.559C34.138 30.6895 33.7969 31.0305 33.7969 31.4511C33.7969 31.8717 34.138 32.2127 34.559 32.2127H38.3026Z" fill="#058B94"/>
<path d="M22.4433 32.2127H30.7777C31.1983 32.2127 31.5394 31.8717 31.5394 31.4511C31.5394 31.0305 31.1983 30.6895 30.7777 30.6895H22.4433C22.0227 30.6895 21.6816 31.0305 21.6816 31.4511C21.6816 31.8717 22.0227 32.2127 22.4433 32.2127Z" fill="#058B94"/>
<path d="M32.2755 38.8871C32.2787 39.2991 32.6061 39.6347 33.0176 39.6488H44.3531C44.7723 39.6452 45.1116 39.3063 45.1148 38.8871C45.1166 38.6846 45.0371 38.4897 44.8936 38.3467C44.7505 38.2032 44.5557 38.1237 44.3532 38.1255H33.0176C32.8178 38.1269 32.627 38.2086 32.4876 38.3517C32.3486 38.4948 32.2719 38.6873 32.2755 38.8871Z" fill="#058B94"/>
<path d="M22.4434 39.6489H28.4925C28.9012 39.6316 29.225 39.2965 29.2282 38.8872C29.2314 38.6842 29.1524 38.488 29.0088 38.3445C28.8653 38.201 28.6691 38.122 28.4661 38.1256H22.4434C22.244 38.127 22.0532 38.2087 21.9138 38.3518C21.7744 38.4948 21.6981 38.6874 21.7013 38.8872C21.7044 39.2992 22.032 39.6348 22.4434 39.6489Z" fill="#058B94"/>
<path d="M22.4433 44.1741H35.2768C35.6974 44.1741 36.0384 43.833 36.0384 43.412C36.0384 42.9915 35.6974 42.6504 35.2768 42.6504H22.4433C22.0227 42.6504 21.6816 42.9915 21.6816 43.412C21.6816 43.833 22.0227 44.1741 22.4433 44.1741Z" fill="#058B94"/>
<path d="M9.40854 43.2102C9.52798 43.4845 9.79958 43.6611 10.0984 43.6593C10.4077 43.6334 10.6757 43.4341 10.7888 43.1452L14.0442 33.7108H17.0717C17.6712 33.7108 18.2458 33.4728 18.6694 33.049C19.0932 32.6253 19.3311 32.0503 19.3311 31.4513V26.9264C19.3348 26.3238 19.0986 25.7442 18.6749 25.3156C18.2511 24.8873 17.6743 24.6443 17.0717 24.6411H12.5141C11.9092 24.6443 11.3296 24.8864 10.9019 25.3142C10.474 25.742 10.2324 26.3211 10.2288 26.9265V29.9603L0.807582 33.2158C0.519182 33.303 0.319355 33.566 0.312542 33.8671C0.289379 34.185 0.469688 34.4825 0.762169 34.6092L6.71944 37.2524L9.40854 43.2102ZM11.7784 26.9328C11.7784 26.5123 12.1195 26.1712 12.54 26.1712H17.098C17.5186 26.1712 17.8597 26.5123 17.8597 26.9328V31.4582V31.4577C17.8561 31.8774 17.5172 32.2162 17.098 32.2198H14.5588L15.5548 29.4394C15.6392 29.1605 15.5584 28.8581 15.3463 28.6582C15.1433 28.4466 14.8326 28.3771 14.5588 28.4825L11.7784 29.4135L11.7784 26.9328ZM13.6015 30.4032L10.0399 40.8209L8.04741 36.3415L8.04786 36.341C7.96702 36.1748 7.83122 36.0413 7.66363 35.9636L3.18423 33.9844L13.6015 30.4032Z" fill="#058B94"/>
</svg>
